<svg xmlns="http://www.w3.org/2000/svg" xmlns:xlink="http://www.w3.org/1999/xlink" width="606" height="613" viewBox="0 0 606 613">
  <defs>
    <clipPath id="clip-path">
      <rect id="Rectangle_537" data-name="Rectangle 537" width="606" height="613" fill="none"/>
    </clipPath>
  </defs>
  <g id="Group_423" data-name="Group 423" transform="translate(0.292 -0.143)">
    <g id="Group_422" data-name="Group 422" transform="translate(-0.292 0.143)" clip-path="url(#clip-path)">
      <path id="Path_357" data-name="Path 357" d="M655.624,638.995c7.958,8.4,7.877,16.661-4.179,20.564-9.006,3.665-19.14,4.076-28.049,7.825-.282.318-.6.624-.919.923a2.3,2.3,0,0,1,.161.848,2.9,2.9,0,0,1-3.318,2.723c-9.74,12-22.024,22.233-28.67,36.381-6.389,13.372-7.082,28.027-12.82,41.5-8.141,17.523-25.546,32.51-45.594,32.08-31.363-.736-50-33.09-79.634-38.938-12.976-2.16-25.855,1.751-38.7,3.184a113.163,113.163,0,0,1-38.5-1.281c-17.691-3.84-35.174-9.448-50.983-18.4-16.747-10.427-29.341-22.9-50.355-24.068-14.318-1.575-28.5,1.566-42.682,3.011-13.616.937-27.558.961-40.886-2.3-7.284-1.267-52.228-20.991-48.406-27.216-8.112-2.316-11.545-11.818-20.217-13.271-6.3-2.473-14-2.3-19.806-5.79a4.534,4.534,0,0,1-1.077-.014c-12.722-5.177,1.943-17.717,6.244-24.018,9.665-12.516,20.194-24.322,30.363-36.423,16.517-18.2,32.685-37,51.083-53.331,1.754-4.242,13.884-11.619,15.77-14.014,12.02-10.427,27.793-14.866,41.6-22.032,14.166-9.475,22.393-29.747,42.113-28.55,5.058-.187,9.978.8,14.9,1.786a81.3,81.3,0,0,1,9.516-1.861c3.258,0,11.316-3.12,13.565-.465,11.3-5.028,18.258-11.6,37.915-2.527,19.252,10.6,18.307-13.159,38.916-6.308,4.3,1.012,8.59,2.071,12.9,3.041a2.435,2.435,0,0,1,1.91-.58c.312.018.622.039.935.06a3.537,3.537,0,0,1-.089-1.161,2.7,2.7,0,0,1,3.152-2.125c10.841,2.4,21.716,4.661,32.641,6.654,11.342,1.276,22.719,2.468,33.821,5.268,23.234,4.49,45.382,13.445,64.235,27.948a3.561,3.561,0,0,1,2.994,2.223c8.578,6.289,16.02,14.064,22.966,22.1,13.275,14.924,21.845,33.183,33.052,49.561,8.366,11.3,15.665,23.341,24.932,33.969,6.026,7.989,12.732,15.412,19.205,23.027M187.88,682.528c-1.83-.218-3.668-.323-5.512-.442-1.493-.028-2.983-.07-4.477-.059.392,1.452,2.045,1.531,3.335,1.583a29.319,29.319,0,0,0,6.655-1.082" transform="translate(-55.293 -271.493)" fill="#c8e6f1"/>
      <path id="Path_358" data-name="Path 358" d="M1094.1,872.668c-.2-1.115-.429-2.223-.619-3.342-1.135-6.021-2.25-12.051-3.567-18.035-1.129-4.665-1.908-9.377-2.889-14.08-.14-.685-.274-1.371-.409-2.057a1.6,1.6,0,0,0-.045-.512c-.057-.185-.11-.372-.168-.557-.234-1.161-.482-2.318-.778-3.465a4.26,4.26,0,0,0-.851-1.967q-.68-2.329-1.344-4.664c-1.7-6.061-3.345-12.136-5.545-18.038-.679-2.048-1.268-4.123-1.846-6.2-.6-2.594-1.209-5.183-1.912-7.737a1.656,1.656,0,0,0-.256-.488q-.269-1.115-.532-2.229a1.954,1.954,0,0,0-.487-.979c-.663-2.668-1.261-5.352-1.887-8.027-3.625-13.407-6.862-26.919-10.638-40.291a1.493,1.493,0,0,0-2.878.795c3.594,12.666,6.646,25.477,10.093,38.183q1.236,5.272,2.58,10.512c0,.105,0,.21,0,.315.044,1.068.084,2.134.126,3.2.147,6.089.016,12.175.06,18.264a250.25,250.25,0,0,1-4.16,37.367,1.554,1.554,0,0,0,.093.935,2.015,2.015,0,0,0,1.2,1.781c7.444,5.179,14.963,10.228,20.52,17.583.646.879,1.287,1.762,1.868,2.684a.058.058,0,0,0,0,.014,1.582,1.582,0,0,0,.415.666c.083.143.166.285.245.428.429.7.744,1.884,1.646,2.193a1.531,1.531,0,0,0,1.612-.418,2.011,2.011,0,0,0,.34-1.83" transform="translate(-613.889 -428.761)" fill="#8dc1d4"/>
      <path id="Path_359" data-name="Path 359" d="M312.3,711.861c1.5,2.688,1.548,5.921,2.14,8.889a2.954,2.954,0,0,0-.163.394c.406-.209.807-.419,1.2-.633C327.726,715.226,338.2,710.8,347.9,707.3a2.032,2.032,0,0,1,0-.214c-.3-.218-.592-.426-.863-.617q.657-.453,1.291-.933a3.282,3.282,0,0,1,.968-1.094,5.474,5.474,0,0,1,1.161-.685c6.17-5.638,10.139-13.709,11.934-21.787,2.152-9.478-1.579-19.014-7.494-26.358,1.55-4.672,2.765-10.406-1.255-14.251-3.64-3.436-9.031-3.765-13.154-6.439-6.678-4.674-11.66-11.279-17.7-16.716-.368-.267-.741-.527-1.1-.8a24.748,24.748,0,0,0-2.1-1.416c-.828-.477-1.674-.907-2.518-1.344s-1.679-.872-2.556-1.241c-1.24-.484-2.509-.9-3.766-1.342-1.448-.5-2.9-1-4.386-1.4-.555-.138-1.11-.255-1.674-.355A2.13,2.13,0,0,1,302.216,609a2.063,2.063,0,0,1-.028-1.4q.015-.045.032-.09l-.083-.024a2.182,2.182,0,0,1-1.283-.907,2.1,2.1,0,0,1-.275-1.6,2.033,2.033,0,0,1,.432-.855c-.2-.063-.4-.122-.618-.173-6.5-.7-12.729,3.667-15.271,9.548-2.311,4.846-1.406,10.364-2.021,15.532a20.51,20.51,0,0,1-2.731,6.7,52.827,52.827,0,0,0-5.724,15.375c-1.465,5.53.2,10.925,2.217,16.031-.846,2.663-2.6,4.937-3.477,7.594-3.925,10.6-2.078,23.638,5.454,32.192,8.3,9.546,22.95,12.8,33.459,4.937" transform="translate(-157.237 -350.443)" fill="#f89393"/>
      <path id="Path_360" data-name="Path 360" d="M672.212,958.212c7.287,10.976,6.48,25.7,1.3,37.383-16.2,37.912-98.983,36.479-134.506,34.936-20.674-.888-41.453-2.615-61.707-7.01-16.563-4.025-32.345-10.761-48.089-17.193-15.886-7.124-32-13.935-46.405-23.862a92.634,92.634,0,0,1-20.975-17.392,29.785,29.785,0,0,1-2.654-2.952q-3.967-3.969-7.674-8.193a204.4,204.4,0,0,1-29.448-42.006c-2.26-4.062-4.647-8.129-6.814-12.292-3.663-2.249-6.174-10.974-7.989-13.695-1.76-4.228-4.036-8.494-4.062-13.178,3.673-12.972,20.177-16.628,30.766-22.422,47.31-20.41,68.136-28.036,120.152-18.617,16.957,3.16,33.93,7.669,49.334,15.592,14.051,7,27.044,16.179,42.085,21.073,36.826,10.794,77.829,19.65,104.085,50.042,3.369,3.118,12.351,19.961,13.018,28.707l0,0c3.288,3.606,6.841,6.986,9.584,11.074" transform="translate(-175.714 -480.268)" fill="#ea5372"/>
      <path id="Path_361" data-name="Path 361" d="M568.755,1155.364c-.463-1.072-1.173-.667-1.815-.258a1.448,1.448,0,0,1-2.053-.292l-1.01,1.684a20.343,20.343,0,0,0-1.85-1.118,14.084,14.084,0,0,0-1.745-.587c-1.923.522-.418,2.527-1.6,3.372,1.933.426,1.933.426,2.176,2.219l-2.3-1.479H554.5c-.059-.843-.112-1.591-.21-3l-.619,1.848c-1.276.077-2.475-1.03-3.559-.9-1.02.12-2.257-1.267-3.15.447l-1.211-1.9-.575.518-5.653-1.442-.746-1.026-.728.663-1.715-2.969-.462.224.76,2.128c-2.023-.2-4.181,1.86-5.749-.914a15.627,15.627,0,0,0-2.306-.654c-.6-.083-1.282,1.241-1.793-.228l-.906.849.381.911c-1.477-1.069-2.239-2.886-4.327-2.836l-.938.55a2.431,2.431,0,0,0-.829-.59,2.349,2.349,0,0,1,.284-.019l-.228-1.17-.386.053a2.116,2.116,0,0,0,.33,1.136,2.431,2.431,0,0,1,.829.59l-.542.968-1.621-2.122-1.065,1.21-1.992-1.994-1.778.626-1.514-1.745c-2.647.867-3.563-2.1-5.685-2.482l-.378-1.106-1.782,1.82-.59-.465c-.65,1.5-2.888,1.6-2.958,3.468h-1.341c-.026-.168-.119-.38-.06-.439a8.935,8.935,0,0,0,2.257-4.363l-4.09-3.311-.258.786c-1.006.512-1.948.115-3.021-.276-.043.049.063-.051.168-.151-.026-.353-.052-.705-.086-1.185l-1.139.076a3.934,3.934,0,0,0,1.057,1.26c-.9.505-2.451.465-2.749-.575-.523-1.827-2.123-1.379-3.19-1.885-.719-.341-1.629-.2-2.3-.961-.644-.726-1.41-.477-1.954.175-2.129-.352-2.571-3.685-5.137-2.869l-3.053-3.068-1.011.654a1.479,1.479,0,0,1-.55-.108c-1.995-1.367-3.857-2.945-6.313-3.521-.5-.117-.87-.75-1.322-1.12-1.484-1.216-2.987-2.409-4.463-3.634-.5-.411-.935-.889-1.889-1.807.368,1.179.529,1.7.77,2.469l-1.4-.69.858,2.823c1.456.473,2.236,1.913,3.708,3.11a9.72,9.72,0,0,1-1.707.057c-.246-.039-.45-.349-.677-.539l-.686.623a6.641,6.641,0,0,1-1.738-.73c-1.255-1.009-2.379-2.2-4.124-2.319-.152-1.448-2.392-1.221-2.2-3.095-1.617.922-1.7-.927-2.691-1.32-.794-.315-1.241-1.509-2.108-2.669l-.722,1.749-1.077-.37-1.735,1.74-.5-.312c.185-.641.37-1.282.579-2-.975-.893-2.134.013-3.217-.165a13.118,13.118,0,0,1-3.611-1.437c-1.01-.488-1.6-1.839-2.384-2.81l-.891.575a3.848,3.848,0,0,0-1.407-.505c-.043.049.063-.051.169-.151-.026-.353-.051-.706-.087-1.185l-1.139.076a3.95,3.95,0,0,0,1.057,1.26c.026.07-.1.288-.294.641a54.234,54.234,0,0,1-5.305-3.947c-1.346-1.266-3.211-1.605-4.444-3.079a19.745,19.745,0,0,0-4.071-3.715,7.263,7.263,0,0,1-3.094-3.434c-.209-.593-.9-1.021-1.388-1.51-1.963-1.975-4.006-3.874-5.879-5.93-2.875-3.153-5.75-6.319-8.394-9.664a8.006,8.006,0,0,1-1.583-6.113l-2.459-3.421v-2.427l-.409-.012-.25,3.15-2.144-2.52-.686-3.4.8-.792c1.561.727.655,2.236,1.183,3.729a7.426,7.426,0,0,1,.367-.978c.189-.319.427-.61.66-.934l-.844-1.474,2.818-2.238,2.448,2.453,1.2,4.069c-.637.711-.566,1.6.712,2.572l1.305-2.812c.492.745.82,1.251,1.159,1.751s.7,1.014,1.051,1.521l.515-.517,1.484,2.861-.687,1.954,3.034,2.374v-3.249a5.5,5.5,0,0,1,.959-.924c.225-.127.579-.024,1.209-.024l1.247,2.272c.057-.111-.154.3-.39.706h-.9l-.644-1.4c-.582,1.563.074,2.646.72,3.782.28-.835.542-1.615.823-2.381.263.139.6.221.724.429a26.644,26.644,0,0,0,1.667,3.178c.145.18.021.578.021.954,1.048.545,1.369,2.208,3.012,1.99a1.122,1.122,0,0,0-.089.086l.416.489.188-.189a3.349,3.349,0,0,0-.515-.386c-.027-.86-.027-1.752-.027-2.243l-1.586-3.016-1.632-1.1a2.425,2.425,0,0,0,.3-3.152,17.026,17.026,0,0,1-1.072-4.046.446.446,0,0,1,.28-.167c1.175-.144.569,1.321,1.377,1.549a4,4,0,0,1,1.775.659,7,7,0,0,1,.926,2.075l.815-.365,2.289,2.26-.633,1.481h2.767c-1.024-2.438-1.411-4.891-2.621-7.072l2.611.676a16.1,16.1,0,0,0,1.169,2.167,5.467,5.467,0,0,0,1.46.945,4.617,4.617,0,0,0,.1-1.083c-1.254-.482-.758-2.073-1.742-2.707-.935-.6-.776-1.733-1.2-2.588-.4-.818-.679-1.7-1.2-3.038V1070.4c-.491-.85-.82-1.525-1.249-2.129a18.372,18.372,0,0,0-1.363-1.536l.976-.774,1.246,2.5c1.918.428,1.908,2.217,2.453,3.811l.965-.943c-.789-2.614-2.666-4.253-4.4-6.312l1.362-1.211.2.5.4-.5,1.039.576c.05-.383.1-.779.155-1.174h1.194l1.59,1.249.3-1.134h1.154l-.579.73a5.031,5.031,0,0,1,1.074,3.881h1.655l.108-.286-1.183-.491.48-1.338c-.32-.881-1.382-1.76-.892-3.112,1.341.564,2.583,1.16,3.048,2.806h3.108l-.263.369,1.264.722a5.2,5.2,0,0,0-.6,1.5c-1.108-.215-2.04-.46-3.015-.715l2.22,2.255a7.808,7.808,0,0,0,.794-1.539,8.558,8.558,0,0,1,2.007,1.186,9.874,9.874,0,0,1,1.276,2.134,2.754,2.754,0,0,1,2.672,2.952l3.045,1.432,3.3,4.172h1.089c.265,1.262,1.079,2.162,1.663,3.719.12.306.342.186.329.1a4.915,4.915,0,0,0-.259-.839c-.1.361-.2.721-.071.74,1.96-.021,2.376,1.674,3.349,2.917.212.271.611.4,1.255.276l-1.161-2.613a3.038,3.038,0,0,1,2.1,1.3c-.394,1.426.522,2.449.794,3.605l-.414.455,1.689,3.29c1.71.075,1.143,1.749,1.579,2.594.509.984-.136,2.487,1.336,3.518l1.565-.65.776-1.551c-.879-1.858-.6-4.347-2.834-5.816-.124-.887-.277-1.979-.455-3.25l.662-1.286c1.061,1.5,2.413,2.846,3.051,4.471.714,1.821,2.877,2.114,3.346,4.2l1.148-2.27-2.339-1.119c-.388-1.373-1.782-2.57-1.258-4.518l1.117.528,1.255-.732c1.563,1.733,3.04,3.515,4.674,5.137,1.584,1.572,3.386,2.922,4.991,4.476,1.633,1.581,4.163,1.672,5.445,3.68l.552-.554,5.422,4.572,2.032.577c1.168-.715.542-2.021.681-3.233l-2.171-2.453.6-1.279,1.246-.078a15.218,15.218,0,0,1,2.549,2.979,25.212,25.212,0,0,1,4.448,2.72c1.966,1.513,4.43,2.334,6.418,3.9.511.4,1.061.755,1.6,1.134l1.25-1.253,1.13,2.505.408-1.194,1.479,1.248c.059-.384.236-.764.12-.913-.581-.745-1.607-1.26-1.022-2.613,1.335.207,2,1.468,2.973,2.2a26.28,26.28,0,0,1,2.993,3.051h1.395c.188-.391.367-.76.742-1.538v1.805l2.947,1.522.28-2.525,1.954,1.957.433-.433,2.654,1.383c.546,2.174,3.752,1.707,4.615,3.931.88-.88,1.466,1.009,2.4.094.133-.131,1.207.592,1.765,1.026.677.527,1.268,1.165,1.878,1.737l.853-.712,1.542,1.293.609-.547a10.111,10.111,0,0,0,1.672,1.662,25.327,25.327,0,0,0,2.982,1.394l.526-.488c1.539.6,3.321.823,4.361,1.822,1.19,1.143,3.129.612,3.651,2.478l1.12-.8,4,2.318H559.8a5.75,5.75,0,0,0,.624.567c-.012.007-.05.047-.09.086l.417.489.188-.188a3.332,3.332,0,0,0-.515-.386,5.75,5.75,0,0,1-.624-.567v-.6h1.822l-.574-.992,1.457-1.177c1.466,2.3,3.67,3.292,6.778,3.014l1.1,1.046,2.814-.822.568,1.266,4.42.823c.056-.574.083-.844.13-1.327h-4.36l.617-1.639-2.139-3.409a12.329,12.329,0,0,0,1.946.753,11.524,11.524,0,0,0,1.749.021l1.446,1.379,4.776-1.109c1.52-.192,1.975,1.19,2.716,2.263.615-.929,1.445-.658,2.194-.69v.6l2.379,2.385,2.166-1.035c1.971,1.077,3.909,2.765,6.575,2.857l.38-1.087,2.038.771-1.67-1.987h1.738l.263-2.515.911.046.276,1.681a9.068,9.068,0,0,0,5.784,1.856c2.054-.155,3.942.666,5.934.842.155.013.291.245.578.5,1.3-1.379,2.836-.809,4.054.035,1.086.752,1.746.258,2.754-.278l1.28,1.2c1.655.444,3.607-.472,5.426.907.25-.6.49-1.176.568-1.362l4.978,2.365c.075-.342.135-.613.243-1.1l1.561-.13c.082.4.138.67.2.986.437.437,1.123.359,2.659-.366l.925,1.072h3.33l-2.186-1.4v-1.187c.156-.042.31-.136.435-.107a3.867,3.867,0,0,1,1.58.469c.52.438.856.57,1.3.016.658.583,1.673-.077,2.245.563.723.809,1.618.49,2.485.61l.584-1.244c1.169,0,1.383.889,1.682,1.7,1.483.571,2.353-.948,3.688-1.09l.576,1.2h1.331l.335-1.766c.436,0,1.062-.2,1.347.034,1.26,1.014,2.451.618,3.72.077l1.135,1.139c.779-.429,1.953-.342,2.145-1.817l1.96.987,1.774-.914,3.062,1.2.818-1.549c1.265,1.519,2.247.216,3.25.263a19.881,19.881,0,0,1,3.132.647l.319-1.709,3.791-.575a2.494,2.494,0,0,0,3.259-.289l.869.6,3.62-.681.527,1.535.5-1.1c.956-.635,2.048-1.47,3.346-.264a5.176,5.176,0,0,1,1.548-.571,16.88,16.88,0,0,0,4.648-1.055,9.573,9.573,0,0,1,5.1.378c.061-.286.119-.558.23-1.078l1.5.339a1.407,1.407,0,0,1,2.163.015l1.841-.5,1.068,1.806a17.048,17.048,0,0,0,3.348-1.366c1.164-.792,2.331.058,3.416-.507l1.5,2.181v-2.574l.352-.116.679,1.556,1.148-.875,3.114,3.121-.792,1.615c-.978.98-1.747,1.159-5.524,1.325a8.929,8.929,0,0,0-.758.875c-.095.139-.044.376-.069.694h-1.869l-1.536,1.439-1.438-.79-1.412,1.955-2.912-1.59-.491,1.437h-2.7c-.042.431-.075.772-.13,1.341l1.232-.785,1.229,1.036c-.929.243-1.732.479-2.547.656-.681.148-1.263,1.06-2.086.279l-.408,1.035c-.086.032-.2.118-.254.089-2.327-1.365-4.649.993-6.93-.052l-2.041-1.458v3.456l-2.251,1.52a1.485,1.485,0,0,0-2.357.1c-1.256-1.266-2.869-.088-4.6-.941-.068-.207-.268-.815-.467-1.448.767-.285,1.548-.55,2.443-.853l-.324-1.09-2.119,1.047v.9c-1.267.428-.214,1.584-.751,2.282a18.086,18.086,0,0,1-2.8.431,15.6,15.6,0,0,1-2.625-.386l-1.307,1.31c-1.424-.223-3.023.449-4.584-.752a6.024,6.024,0,0,1-4.24,1.975l-1.245-1.926c-.663.878-.114,2.585-1.83,2.475-1,1.355-2.035.1-3.066-.07l-.455,1.268a16.5,16.5,0,0,0-3.459.054c-1.1.238-1.994-.473-3.139-.236-.914.19-1.99.933-3.094.255l-.547.5-.629-.562-2.645.807c0-.676,0-1.045-.008-1.647a2.4,2.4,0,0,1,.018.285l1.167-.229c-.017-.129-.035-.258-.052-.387a2.106,2.106,0,0,0-1.133.331,5.781,5.781,0,0,1-.929,1.369c-4.4.9-9.132.722-13.949,1.469l.419.591-.7,1.728,2.407-1.248c.312.466.332,1.109,1.2,1.278.558.109.983.9,1.372,1.291v1.4c-.3.047-.623.209-.832.113-.754-.345-1.468-.777-2.4-1.285l-4.9,2.228c-1.441.665-2.521-.642-3.863-.866a24.144,24.144,0,0,0-4.159-.055l-1.82-.963-2.746.522-.266,1.029c-1.635-.064-3.348.379-4.945-.694-.686.952.288,2.393-1.265,2.983l-2.394-1.577-.543.495c-3.272-1.778-3.356-1.8-9-1.8l-1,1.386c-.574-1.112-.86-2.055-2.275-2.058-.829,0-1.544-.974-2.568-.07-.537.474-1.3.089-3.625-1.033l-1.346,1.276a16.009,16.009,0,0,0-2.361-.671c-.879-.119-1.964.283-2.635-.105a5.7,5.7,0,0,0-2.479-.535c-.738-.088-1.316.823-2.254.1-.438-.339-1.562.214-2.833.447l-.443-.959a27.924,27.924,0,0,1-3.913-.559,4.212,4.212,0,0,0-3.538.39M400.46,1080.615l-.117-.117-.488.417.188.189a1.727,1.727,0,0,0,.354-.543,2.874,2.874,0,0,0,.534-.653l.117.117.488-.417-.188-.189a1.712,1.712,0,0,0-.354.543,2.883,2.883,0,0,0-.535.653M410.492,1089l.117-.117-.416-.489-.189.189a.945.945,0,0,0,.6.291l-.117.117.416.489.189-.189a.94.94,0,0,0-.6-.292m25.672,14.96.117-.117-.416-.489-.188.189a.945.945,0,0,0,.6.292l-.116.117.416.489.188-.188a.946.946,0,0,0-.6-.292m-1.683-1.322-.116.117.416.489.188-.188a1.449,1.449,0,0,0-1.005-.339l.516-.026-.228-1.17-.386.053a1.115,1.115,0,0,0,.616,1.065m68.657,41.89-.117.117.416.489.189-.189a1.492,1.492,0,0,0-1.021-.345l.547-.019-.23-1.764-.4.034a2.118,2.118,0,0,0,.616,1.676m-77.72-57.922.116-.117-.416-.489-.188.189a1.432,1.432,0,0,0,.518.331c.03.383.057.741.1,1.23l1.124-.124c-.034-.4-.055-.658-.085-1.018a5.2,5.2,0,0,0-1.164,0m23.335,1.154.3-.317-1.405-.911c-.026.4-.048.722-.076,1.141.478.035.83.061,1.054.067l1.567,2.377.424-.227-.88-2.15c-.39,0-.685,0-.982.02m258.581,49.183c1.121-.939,1.121-.939,0-1.833,0,.523,0,.991,1.1,1.184.023.285.052.645.08.991h1.732c-.036-.391-.06-.654-.091-.991a6.538,6.538,0,0,0-2.825.65M427.209,1070.45l.117-.117-.416-.489-.188.189c.162.139.325.278.534.426-.172,1.635,1.084,1.68,1.806,1.789.745.739,1.26,1.219,1.738,1.734.534.576,1.034,1.184,1.557,1.788.341-2.675-.352-3.821-2.843-4.514l.677-1.225-.768-.77c-.715.4-1.424.787-2.214,1.189m18.146,13.174a12.365,12.365,0,0,0-1.345-.331c-1.232-.168-1.183-1.655-2.077-2.055-2.155-.964-3.3-3.011-4.976-4.483-.347-.305-.129-1.075-1.043-1.047-.47.014-.113-1.395-1.246-1.169-.418.083-.919-.252-1.415-.406-.009,2.929.005,2.967,1.638,4.467l.4-1.168,1.018,2.973,6.419,3.481c.04.35.094.82.164,1.44,1.642-.5,2.165,1.156,3.269,1.776l.919-1.113-1.726-2.366m244.4,57.088c.383,2.486,2.511,2.146,3.518,3.287l.772-1.6c-1.22-.353-2.614-.508-3.476-1.747l.945-.865c.679.22,1.284.454,1.909.6.2.047.462-.144.683-.221l-1.327-1.422-2.7-.453c-2.126,1.318-4.484,1.29-7.173.212l-1.385,3.389c1.675,1.2,3.192-1.312,4.465.017l3.77-1.192m-18.816,2.684h2.949c.494,0,.988,0,1.482,0a5.321,5.321,0,0,0,1.751-.07c.4-.152.653-.706,1.065-.05l1.023-.729-2.286-1.51,2.216-1.159H675.68l-2.571,2.434-1.416-1.322-.755,2.407m-145.4-1.271-3.18.26,1.2,1.519h2.729l-.75-1.779m-88.44-53.86c.7,2.2.7,2.2,2.354,1.1l-2.354-1.1m164.727,45.6-2.4-.834a5.532,5.532,0,0,0,3.386,2.073c-.035-.779-.059-1.319-.092-2.054l-.891.815M408.19,1084.952c.18,2.471.18,2.471,1.75,2.6.1-1.16-.981-1.489-1.75-2.6m147.221,68.315c.654,1.106,1.037,1.775,1.45,2.425.06.094.263.1.363.131l.678-1.461-2.491-1.1m-40.33-14.134c-1.011-2.1-1.611-2.634-2.353-2.128l.723,1.463,1.63.665m-76.932-66.157.411-.335-1.3-2.232-1.128.892,2.016,1.675m-33.34,9.891c-.747-.71-1.226-1.235-2.088-2.014.089,1.062.133,1.59.169,2.014Zm41.654,24.818v1.62l1.643-.095-1.643-1.526m-1.388-27.662.895-1.948-2.039.99,1.144.958m214.683,64.6c.239,1.1.239,1.1,1.694,1.228l-1.694-1.228m21.831-3.113-1.692-.733-1.379.446.211.287Zm-255.146-74,.587,1.481,1.006-2.269-1.594.788m11.777,42.294c-.146.373-.23.488-.2.532.285.457.589.9.888,1.352a1,1,0,0,0,.2-.2c.365-.7-.243-.991-.594-1.388-.063-.071-.134-.136-.29-.292m92.483,35.4v1.27l1.084-.22-.218-1.05Zm144.862.157h-1.809l.257,1.27,1.552-1.27m-11.858-.418c-.554-.4-.734-1.324-1.844-.676.554.4.734,1.324,1.844.676m-235.2-65.482,1.16-.215-1.16-.768Zm-28.01-1.982.534-.032-.221-1.585-.313.028Zm31.3,37.631c.189-.9.189-.9-1.26-.788l1.26.788m14.722-34.212v.93l.791-.138-.791-.792M669.3,1143.943l-.484-1.213-.263.174v1.039Zm1.223-2.119c.684-1.728-.092-1.429-.665-1.331l.665,1.331m-130.647,9.217c.1-1.624.1-1.624-.527-1.474l.527,1.474m-74.259-32.729.949,1.764v-1.764ZM430.8,1096.634l-1.159.215,1.159.768Zm17.463,4.776.516-.065q-.115-.487-.232-.974l-.284.046Zm45.774,4.182q-.033-.258-.065-.517l-.971.233c.016.094.031.189.046.284Zm-60.95-7.079h-.3v1.2h.3Zm-4.728-1.686-.514.023q.11.505.22,1.01l.294-.041Zm274.028,38.9-.511.033.218,1,.294-.04ZM420.8,1091.836l.516-.065-.232-.974-.284.046Zm18.3,14.566-.511.033q.109.5.217,1l.294-.04Zm12.49-17.464h-.3v1.2h.3Zm-.3,24.535h.3v-1.2h-.3Zm130.746,15.559h.3v-1.2h-.3Zm-31.642.6h.3v-1.2h-.3Zm62.646,24.638c.011.171.022.341.033.512l1-.218-.04-.294Zm-59.316-.591-.511.033.217,1,.294-.04Zm81.146-3.1h-.3v1.2h.3Zm-209.85-83.78h.3v-1.2h-.3Zm-23.88,16.756h.3v-1.2h-.3Zm160.548,46.582.516-.065-.232-.974-.284.046Zm100.4,19.843h.2v-.6h-.2Zm29.054-4.987h.6v-.2h-.6Zm-1.791-.6h.6v-.2h-.6Zm-31.244-1.6h-.2v.6h.2Zm-165.372-3.59h-.2v.6h.2Zm72.039-1.2h.2v-.6h-.2Zm63.482-1.8h-.2v.6h.2Zm85.97-.6h-.2v.6h.2Zm-280.2-55.654h.2v-.6h-.2Zm-36.617-4.388h.6v-.2h-.6Zm56.915,49.869h.2v-.6h-.2Zm-2.388-7.181h.2v-.6h-.2Zm11.741-1.4h.6v-.2h-.6Zm-3.383-.4h.2v-.6h-.2Zm-11.94-1.2h.2v-.6h-.2Zm-4.776-10.173h.2v-.6h-.2Zm20.9-5.985h.2v-.6h-.2Zm-42.786-6.583h-.2v.6h.2Zm11.741-1.2h.2v-.6h-.2Zm-4.776-1.8h.2v-.6h-.2Zm39-1.2h-.2v.6h.2Zm-54.129-1.995h.6v-.2h-.6Zm18.109-1.6h.2v-.6h-.2Zm-2.587-1.6h-.6v.2h.6Z" transform="translate(-228.057 -616.554)" fill="#c95372"/>
      <path id="Path_362" data-name="Path 362" d="M341.539,994.089h-.918l-1-2.038-2.988-2.336-.608,1.163c-.068.005-.249.076-.342.015-.472-.312-.933-.642-1.374-1a7.557,7.557,0,0,1-1.517-1.329c-.6-.838-.714-1.872-1.812-2.549a5.61,5.61,0,0,1-1.946-2.337,28.048,28.048,0,0,0-1.661-2.888,2.767,2.767,0,0,0-.433-.443l-.621.558a76.983,76.983,0,0,0-5.635-9.866,19.276,19.276,0,0,1-1.24-2.756,19.99,19.99,0,0,0-3.14-4.688,16.874,16.874,0,0,1-3.329-5.147c-.7-1.816-1.724-3.458-2.294-5.446l.534-.961c-1.179-.688-2.422-1.766-2.456-2.607-.05-1.233-.815-2.065-1.222-3.09-.474-1.193-.763-2.46-1.177-3.841l1.072-2.067v3.6l.93.932c.316-.186.629-.369.969-.583-.012.008-.051.046-.09.085l.416.489.189-.189a3.362,3.362,0,0,0-.515-.386c-.288-.726-1.116-1.4-.359-2.334l.616.536,1.035-1.734a3.526,3.526,0,0,0,.889.55,4.9,4.9,0,0,0,1.14.021c.377,2.024,1.939,3.446,2.1,5.385h1.02a7.254,7.254,0,0,0,.124,1.654,6.509,6.509,0,0,0,.823,1.383c.351-.8.914-1.489.879-2.144a7.721,7.721,0,0,0-.831-3.207c-.632-1.157-.23-1.8.768-2.572.071.842.134,1.587.206,2.429l1.661.121V947l2.659-.755c1.452.471.739,1.964,1.114,3.059l.872-.785,1.544,3.1.349-.133c-.556-2.484-1.113-4.968-1.684-7.518a17.539,17.539,0,0,1,2.357,2.879,7.1,7.1,0,0,0,2.288,3.182,15.428,15.428,0,0,1,3.37,5.652h2.2l-1.868-.834V952.5l-1.209-.571v-.654l1.319-.62-.572-1.221.446-.6c-1.03-1.949-.146-4.537-2.362-6.784l2.8.708-.483,1.954.863-.786,2.179,1.976-.592.594,3.568,2.707-.5.2.5.4.2.5.4-.5,2.325.694.072,1.155,4.549,5.738,1.063-.516,1.052,2.981c2.918-.186,2.815,2.82,4.257,4.255,1.628-.721.748-2.211,1.088-3.4l.851-.193.931,3.889c.527.383,1.639.844,1.617,1.242-.065,1.173,1.03.7,1.329,1.23.363.648.765,1.276,1.168,1.9a2.218,2.218,0,0,0,.825.765,2.417,2.417,0,0,1-.284.018l.228,1.169.386-.053a2.109,2.109,0,0,0-.329-1.135,2.643,2.643,0,0,1,.035-1.443l2.718,2.647.76,3.35,1.656,1.111-.6.6.881.957,1.242-1.8,2.018,2.416v1.382c1.327.752,1.327.752,2.332,2.523l-.419.42,2.282,1.783v1.981l-.955.358-1.022,2.154h-2.7c-.041-.517-.092-1.167-.158-2a10.756,10.756,0,0,0-2.249-2.607,5.668,5.668,0,0,1-2.26-2.6,6.1,6.1,0,0,1-.952.567,6.479,6.479,0,0,1-1.1.222l-2.137-2.685c.141-.579.3-1.249.575-2.352l-2.211.864-.952-1.71v3.438H355.7l.858-1.061-2.322-1-1.715-2.8c.823.354,1.187.51,1.578.636a1.135,1.135,0,0,0-.09.085l.416.489.188-.189a3.35,3.35,0,0,0-.514-.386,3,3,0,0,0,.469-2.692l-2.287-.867-.855-1.189a2.749,2.749,0,0,1-2.13.6v-.921L347.6,969c-.034.368-.058.638-.081.887.621.305,1.2.589,1.776.869.2.6.393,1.2.6,1.839.97-.453,1.291-1.585,2.385-1.246v1.2c-.2.15-.561.291-.57.451-.054.961-.027,1.926-.027,3.143l1.259.831-.243.4-1.353-.511c-.235.295-.546.684-.884,1.1a1.1,1.1,0,0,0,.09-.085l-.416-.489-.189.188a3.326,3.326,0,0,0,.515.386c.027.368.027.767.027,1.166h-1.528c-1.113-1.421-2.866-2.329-3.536-4.181h-1.172c-.174-1.221-1.633-1.182-2.046-2.072-.381-.821-.5-1.763-.908-2.643-.312,2.092-1.792,4.074-.425,6.387H339.4c-.023-.031-.224-.175-.229-.324-.03-.892.016-1.789-.042-2.679-.011-.169-.371-.316-.6-.441.012-.008.051-.047.09-.086l-.416-.489-.188.188a3.357,3.357,0,0,0,.515.386c-.123.771-.272,1.575-.459,2.575l.486,1.583H337.4c.075.709.147,1.39.252,2.39l-.891.654,1.213,2.342h-2.344a16.422,16.422,0,0,0-.551-1.6l.943-.945v-2.358l-1.172,1.063-1.431-2.269c-.334,1.514-.613,2.775-.825,3.731l2.384,2.382h.653a5.729,5.729,0,0,0-.506.954l1.124,1.337-.638,1.2h2.541a5.686,5.686,0,0,1,1.662,3.271c.214,1.142,2.11,1.108,2.156,2.607-.677.422-.4,1.257-.432,2m-14.871-40.756-.117.117.416.489.188-.189a1.45,1.45,0,0,0-1.005-.338l.516-.027-.228-1.17-.386.049a1.119,1.119,0,0,0,.616,1.068m16.608,18.078.117-.117-.416-.489-.188.188a.558.558,0,0,0,.689.126c.2.894.458,1.7,1.839,1.2a4.348,4.348,0,0,0-2.04-.906M341,968.294l-.117.117.416.489.188-.188c-.163-.139-.325-.278-.4.2-.15-1.174-.228-1.775-.329-2.567l-1.3.65a4.08,4.08,0,0,0,1.539,1.3m-7.085,6.661.516-.026-.228-1.17-.385.052a1.345,1.345,0,0,0,.366,1.009l1.121,2.667c.554-1.419.171-2.15-1.39-2.533m-1.808,1.363-1.311-2.533a10.7,10.7,0,0,1-.019,1.8,4.815,4.815,0,0,1-.464.983l.791.758,1-1m14.4-6.6c-.468-.614-.665-.911-.9-1.172-.254-.28-.546-.526-1.032-.986-.11,1.5.538,1.866,1.935,2.158m20.558,8.675-1,.332,1,1.243ZM318.7,951.92v-.975l-1.526.266,1.526.709m19.357,37.267.528-.011q-.108-.8-.216-1.6l-.312.025ZM360.4,975.365c.189-.9.189-.9-1.26-.788l1.26.788M336.064,949.9l-.516.065.232.974.284-.046Zm4.132,20.85h-.3v1.2h.3Zm-8.358,9.575h-.3v1.2h.3Zm4.179-23.937h-.3v1.2h.3Zm7.313,11.171h.6v-.2h-.6Zm-8.358,20.147h-.6v.2h.6Zm21.692-16.357h.2v-.6h-.2ZM319.848,953.4h-.2v.6h.2Z" transform="translate(-177.557 -545.641)" fill="#c95372"/>
      <path id="Path_363" data-name="Path 363" d="M388.459,1067.2l1.642.931,1.031-.751a6.5,6.5,0,0,0,.83,1.469,8.422,8.422,0,0,0,1.614.972c-1.156.783-.338,2.608-2.14,3.249-1.269-1.052-1.88-3.163-4.093-3.123.475-.914,1.587-1.236,1.117-2.746" transform="translate(-224.607 -619.16)" fill="#c95372"/>
      <path id="Path_364" data-name="Path 364" d="M456.185,1059.223v-3.069l1.6.989v2.745l-1.6-.665" transform="translate(-264.602 -612.754)" fill="#c95372"/>
      <path id="Path_365" data-name="Path 365" d="M466.688,1049.781h1.27l-.452,1.589.488.737-.985,1.232-.73-.731a10.338,10.338,0,0,0,.393-1.385,9.909,9.909,0,0,0,.016-1.442" transform="translate(-270.467 -609.058)" fill="#c95372"/>
      <path id="Path_366" data-name="Path 366" d="M794.944,1288.6l1.02.839,1.842-.835v2.009l-2.862-.888Z" transform="translate(-461.411 -747.567)" fill="#c95372"/>
      <path id="Path_367" data-name="Path 367" d="M809.9,1283.154l.8,1.649c-1.332.522-1.579-.4-2.268-1.276l1.47-.374" transform="translate(-469.243 -744.409)" fill="#c95372"/>
      <path id="Path_368" data-name="Path 368" d="M1151.359,1242.739l1.1,1.925-1.1.193Z" transform="translate(-668.476 -720.969)" fill="#c95372"/>
      <path id="Path_369" data-name="Path 369" d="M982.226,1290.174l-1.3,1.3-.991-.993,2.293-.311" transform="translate(-568.883 -748.48)" fill="#c95372"/>
      <path id="Path_370" data-name="Path 370" d="M383.106,1028.278h1.086c.046.557.094,1.131.2,2.384l-1.284-2.384" transform="translate(-222.146 -596.586)" fill="#c95372"/>
      <path id="Path_371" data-name="Path 371" d="M817.046,1209.007l1.607.9c-1.067.932-1.372-.144-1.607-.9" transform="translate(-474.251 -701.405)" fill="#c95372"/>
      <path id="Path_372" data-name="Path 372" d="M430.456,1102.716v-1.589l.312-.025q.108.8.216,1.6l-.528.012" transform="translate(-249.655 -638.823)" fill="#c95372"/>
      <path id="Path_373" data-name="Path 373" d="M382.787,1065.873v.86h-1.027l-.211-.285,1.239-.575" transform="translate(-221.241 -618.391)" fill="#c95372"/>
      <path id="Path_374" data-name="Path 374" d="M467.421,1061.459q-.041-.874-.083-1.748l.4-.034.23,1.763-.546.019" transform="translate(-271.082 -614.797)" fill="#c95372"/>
      <path id="Path_375" data-name="Path 375" d="M463.094,1053.394v-.647h1.027l.188.26-1.216.387" transform="translate(-268.616 -610.778)" fill="#c95372"/>
      <rect id="Rectangle_508" data-name="Rectangle 508" width="0.298" height="1.197" transform="translate(368.907 513.676)" fill="#c95372"/>
      <path id="Path_376" data-name="Path 376" d="M793.7,1287.393q-.049-.572-.1-1.144l.386-.053q.114.585.228,1.17l-.516.027" transform="translate(-460.632 -746.173)" fill="#c95372"/>
      <rect id="Rectangle_509" data-name="Rectangle 509" width="1.194" height="0.299" transform="translate(198.011 443.212)" fill="#c95372"/>
      <path id="Path_377" data-name="Path 377" d="M464.4,1063.751v-1.094l.395-.043.2,1.137Z" transform="translate(-269.377 -616.5)" fill="#c95372"/>
      <path id="Path_378" data-name="Path 378" d="M393.636,1064.158v.993l-.294.041q-.11-.505-.22-1.01l.513-.023" transform="translate(-227.965 -617.396)" fill="#c95372"/>
      <path id="Path_379" data-name="Path 379" d="M380.811,1071.246v.991l-.284.047-.232-.974.516-.064" transform="translate(-220.513 -621.507)" fill="#c95372"/>
      <path id="Path_380" data-name="Path 380" d="M458.03,1096.424l1.477.421a4.891,4.891,0,0,1-.837.259c-.088.012-.208-.21-.64-.68" transform="translate(-265.674 -636.109)" fill="#c95372"/>
      <rect id="Rectangle_510" data-name="Rectangle 510" width="0.298" height="1.197" transform="translate(186.818 464.605)" fill="#c95372"/>
      <path id="Path_381" data-name="Path 381" d="M789.865,1218.506l-.488-.417.188-.188.416.489-.116.116" transform="translate(-458.176 -706.563)" fill="#c95372"/>
      <rect id="Rectangle_511" data-name="Rectangle 511" width="0.199" height="0.599" transform="translate(380.896 513.077)" fill="#c95372"/>
      <rect id="Rectangle_512" data-name="Rectangle 512" width="0.597" height="0.2" transform="translate(486.965 511.482)" fill="#c95372"/>
      <rect id="Rectangle_513" data-name="Rectangle 513" width="0.199" height="0.599" transform="translate(361.792 512.479)" fill="#c95372"/>
      <rect id="Rectangle_514" data-name="Rectangle 514" width="0.199" height="0.599" transform="translate(364.777 511.88)" fill="#c95372"/>
      <rect id="Rectangle_515" data-name="Rectangle 515" width="0.597" height="0.2" transform="translate(385.474 543.797)" fill="#c95372"/>
      <rect id="Rectangle_516" data-name="Rectangle 516" width="0.199" height="0.599" transform="translate(133.734 393.991)" fill="#c95372"/>
      <rect id="Rectangle_517" data-name="Rectangle 517" width="0.199" height="0.599" transform="translate(365.374 541.203)" fill="#c95372"/>
      <path id="Path_382" data-name="Path 382" d="M383.194,961.315l.6.6h-.6Z" transform="translate(-222.197 -557.75)" fill="#c95372"/>
      <rect id="Rectangle_518" data-name="Rectangle 518" width="0.597" height="0.2" transform="translate(403.981 516.867)" fill="#c95372"/>
      <rect id="Rectangle_519" data-name="Rectangle 519" width="0.199" height="0.599" transform="translate(393.433 514.873)" fill="#c95372"/>
      <rect id="Rectangle_520" data-name="Rectangle 520" width="0.597" height="0.2" transform="translate(186.072 462.411)" fill="#c95372"/>
      <rect id="Rectangle_521" data-name="Rectangle 521" width="0.199" height="0.599" transform="translate(188.659 460.416)" fill="#c95372"/>
      <rect id="Rectangle_522" data-name="Rectangle 522" width="0.199" height="0.599" transform="translate(185.673 460.416)" fill="#c95372"/>
      <rect id="Rectangle_523" data-name="Rectangle 523" width="0.597" height="0.2" transform="translate(185.474 458.222)" fill="#c95372"/>
      <rect id="Rectangle_524" data-name="Rectangle 524" width="0.199" height="0.599" transform="translate(193.435 454.432)" fill="#c95372"/>
      <rect id="Rectangle_525" data-name="Rectangle 525" width="0.199" height="0.599" transform="translate(192.838 452.636)" fill="#c95372"/>
      <rect id="Rectangle_526" data-name="Rectangle 526" width="0.597" height="0.2" transform="translate(169.355 451.639)" fill="#c95372"/>
      <rect id="Rectangle_527" data-name="Rectangle 527" width="0.199" height="0.599" transform="translate(209.554 449.644)" fill="#c95372"/>
      <rect id="Rectangle_528" data-name="Rectangle 528" width="0.199" height="0.599" transform="translate(205.375 446.054)" fill="#c95372"/>
      <path id="Path_383" data-name="Path 383" d="M471.379,1063.093l.416-.489.188.189-.488.417-.116-.117" transform="translate(-273.43 -616.495)" fill="#c95372"/>
      <path id="Path_384" data-name="Path 384" d="M427.328,1032.4l.488.417-.188.189-.416-.489Z" transform="translate(-247.77 -598.979)" fill="#c95372"/>
      <path id="Path_385" data-name="Path 385" d="M411.657,1032.4l.488.417-.188.189-.416-.489.116-.117" transform="translate(-238.665 -598.979)" fill="#c95372"/>
      <path id="Path_386" data-name="Path 386" d="M415.93,1016.731l.488.417-.188.189-.416-.489.116-.117" transform="translate(-241.148 -589.89)" fill="#c95372"/>
      <path id="Path_387" data-name="Path 387" d="M441.459,1011.8l.416-.489.188.189-.488.417-.117-.117" transform="translate(-256.047 -586.747)" fill="#c95372"/>
      <path id="Path_388" data-name="Path 388" d="M856.059,1216.965l.416-.489.188.189-.488.417-.116-.117" transform="translate(-496.917 -705.737)" fill="#c95372"/>
      <rect id="Rectangle_529" data-name="Rectangle 529" width="0.199" height="0.599" transform="translate(330.15 510.684)" fill="#c95372"/>
      <rect id="Rectangle_530" data-name="Rectangle 530" width="0.199" height="0.599" transform="translate(331.344 508.889)" fill="#c95372"/>
      <rect id="Rectangle_531" data-name="Rectangle 531" width="0.199" height="0.599" transform="translate(280.598 489.14)" fill="#c95372"/>
      <rect id="Rectangle_532" data-name="Rectangle 532" width="0.597" height="0.2" transform="translate(261.295 480.363)" fill="#c95372"/>
      <path id="Path_389" data-name="Path 389" d="M302.21,259.706c-.012-.021-.021-.042-.03-.06-.063-.1-.128-.192-.194-.288a2.848,2.848,0,0,0-.378-.388,3.323,3.323,0,0,1,.6.736m79.849,193.576c-9.6-2.059-14.893-11.554-21.411-18.063a147.113,147.113,0,0,1-22.3-31.869c-8.376-15-14.126-31.4-21.94-46.656-4.829-9.16-8.469-19.795-17.052-26.176-4.335-2.962-5.881-1.931-7.455-.426-.732,1.019-1.46,2.041-2.211,3.046-13.755,18.949-33.294,39.658-58.815,36.654-1.144-.044-3.541-.211-6.334-.566q-.328-.243-.66-.474c-.669-.472-1.369-.9-2.056-1.351a1.829,1.829,0,0,0-.346-.409,12.28,12.28,0,0,0-1.591-1.133,2.14,2.14,0,0,0-.261-.39l.034.039c-.012-.014-.023-.028-.035-.04l-.005-.006a1.721,1.721,0,0,0-.141-.148h0c.049.046.1.1.143.148a5.084,5.084,0,0,0-1.374-.919c-.358-.19-.724-.359-1.1-.512-.433-.286-.869-.566-1.315-.825a4.063,4.063,0,0,0-1-.446,2.025,2.025,0,0,0-1.265.087l-.834-.253c-.646-.241-1.3-.47-1.947-.692-1.5-.517-3.05-.881-4.582-1.29-.443-.135-.888-.264-1.336-.374a2.086,2.086,0,0,0-2.188.854c-7.657-5.39-15.392-11.638-22.77-12.045-2.493,2.952-8.224,5.677-10.36,5-11.916-1.7-11.545-16.838-14.758-25.826a61.284,61.284,0,0,0-4.869-9.585,2.609,2.609,0,0,1-.849-1.08,63.858,63.858,0,0,0-6.711-6.411c-4.769-4.49-9.418-9.122-13.758-14.031a187.907,187.907,0,0,1-26.035-42.147,2.421,2.421,0,0,1,.632-2.936c-1.455-19.33,11.78-38.44,29.667-45.44,11.827-6.9,22.449-4.864,33.529,2.3,4.734-4.516,8.507-10.17,14.453-13.337,14.879-8.812,33.109-13.26,50.237-9.779a95.174,95.174,0,0,1,19.993,6.119c3.164,1.04,6.047,4.2,9.5,3.644,10.61-3.122,22.113-4.544,32.93-1.568,21.243,5.752,42.19,25.379,34.506,49.1A79.77,79.77,0,0,1,315.4,267.2c4.027,2.917,7.937,6.044,11.811,8.684,9.831,7.388,21.217,12.124,32.058,17.719,10.47,4.548,21.164,9.513,32.191,12.3a54.62,54.62,0,0,0,9.153.881,2.619,2.619,0,0,1,2.558,3.249c1.653,1.524,1.024,5.341,1.588,7.47,3.418,35.687,4.6,72.163-5.569,106.894-.97,3.324-2.066,6.605-3.248,9.854-2.288,11.074-6.035,19.243-12.156,19.243a7.481,7.481,0,0,1-1.723-.206" transform="translate(-59.019 -107.264)" fill="#f89393"/>
      <path id="Path_390" data-name="Path 390" d="M96.469,1008.2c-20.527-1.367-41.012-8.648-51.335-27.557-10.8-19.2-4.834-42.96,4.307-61.64,3.906-7.5,9.006-14.277,13.6-21.352,1.406-1.977,2.938-5.848,5.92-4.023a2.486,2.486,0,0,1,.464.4c5.529.544,10.717,2.662,15.929,4.471,3.377,1.225,7.266,2.559,10.008,4.852a196.82,196.82,0,0,1,26.165,21.018c.114.04.233.086.352.14,4.562,1.29,9.387,1.082,14.17.431a2.383,2.383,0,0,0,.875.822,2.8,2.8,0,0,0,1.395.283c.154,0,.308,0,.457-.009.261-.009.522-.014.781-.031.548-.03,1.1-.068,1.642-.145,1.343-.191,2.681-.4,4.015-.654,2.493-.463,4.986-.9,7.492-1.286,1.674-.24,3.351-.469,5.025-.731q1.365-.216,2.729-.436l.244-.017,1.119-.091,1.143-.109,1.147-.126,1.143-.133,1.14-.147,1.11-.154,1.1-.163,1.1-.18,1.1-.189,1.089-.205,1.075-.222,1.024-.227,1.007-.241.952-.25c.393-.053.786-.1,1.179-.153,3.547-.276,7.09-.59,10.622-1.014,20.833-2.335,41.707-4.546,62.39-7.982,2.2-.993,5.883-1.194,7.651-2,7.273-1.6,13.94-4.89,20.96-7.246,14.143-4.546,61.842-22.59,73.725-16.7,7.072,2.87,4.211,11.028-.909,14.363-5.144,4-11.314,6.124-17.337,8.494a228.553,228.553,0,0,1,27.53,5.06c10.517,2.2,21.145,4.422,31.241,8.143,5.856,2.349,12.378,4.425,16.663,9.3,4.03,5.845-2.751,10.49-8.359,9.747-12.636-1.087-25.466-3.291-38.116-3.934-.954-.056-1.91-.108-2.864-.154,15.854,5.878,31.657,11.925,46.3,20.386,4.6,3.249,11.547,7.512,10.806,13.949-1.4,5.1-7.119,6.084-11.706,5.4.8,4.965-7.548,8.415-12.629,7.709-15.269-.982-30.355-3.775-45.489-6.058,6.4,3.487,13.133,6.748,18.186,12.063,4.4,4.24,4.3,11.527-3.15,11.228-6.289-.419-12.018-3.572-17.866-5.682-5.566-2.094-11.1-4.305-16.722-6.238-17.68-5.589-36.4-6.321-54.385-10.659a39.649,39.649,0,0,0-5.5-1.143,2.38,2.38,0,0,1-.5.421,2.76,2.76,0,0,1-2.3.39c-5.594.271-11.2.552-16.766,1.183-13.48,2.09-26.783,5.221-40.243,7.43-3.02.816-6.044,1.6-9.09,2.319-31.85,7.157-63.719,17.135-96.523,17.916a2.4,2.4,0,0,1-2.131,1.316c-.94.039-1.884.07-2.826.07-.436,0-.875-.007-1.313-.024" transform="translate(-22.429 -512.931)" fill="#f89393"/>
      <path id="Path_391" data-name="Path 391" d="M688.625,1151.62c-25.862-2.868-51.827-5.928-77.258-11.566a317.538,317.538,0,0,1-100.145-43.8c-16.847-12.131-37.253-27.758-45.184-47.448-1.215-2.959-1.294-5.991-.291-8.05a3.721,3.721,0,0,1-.026-.468c.774-2.62,2.975-2.707,5.377-2.078-1.1-3.96-.021-7.319,6.046-7.447,14.39,3.847,27.329,12.94,39.853,20.742,13.075,8.686,26.436,17.161,41.369,21.878-2.42-9.046-23.451-32.482-14.723-39.522,16.222-4.684,31.815,22.13,42.192,31.863,4.059,4.866,9.29,8.412,14.711,11.612,1.252-.47,2.994.021,4.377.341,9.2.348,18.524.738,27.679-.461,30.33-4.041,60.8-8.905,90.074-17.986,7.837-2.048,15.427-4.892,23.171-7.243,1.8-.391,5.368-1.8,7.956-1.954-.028-1.479.791-3.281.844-4.717.746-7.035.154-14.11-.07-21.157-2.145-25.951-8.781-51.356-13.921-76.844a2.645,2.645,0,0,1,2.714-3.233c2.435-.947,5.962-1.211,7.581-1.709a150.31,150.31,0,0,1,20.655-3.092c10.938-1.276,21.73-3.672,32.725-4.567,9.61-.8,19.151-2.157,28.64-3.875a2.5,2.5,0,0,1,1.571.278c1.378-1.174,3.943-1.026,4.442,1.309,5.823,35.432,14.028,70.4,17.533,106.078,1.8,21.553,3.645,43.9-2.178,64.994-3.409,11.1-11.986,20.2-21.812,26.047-1.583.479-3.645,2-5.617,2.868-5.118,3.522-15.873,7.1-17.986,8.5-23.5,10.282-49.864,12.367-75.247,12.435-15.089-.769-30-.888-45.053-1.725" transform="translate(-269.756 -539.816)" fill="#f89393"/>
      <path id="Path_392" data-name="Path 392" d="M348.466,972.453l.874-.155,1.481.085-.261.037-1.042.131-1.031.107-1.045.089-1.094.079-.382.021c.834-.122,1.668-.251,2.5-.395" transform="translate(-200.569 -564.119)" fill="#f89393"/>
      <path id="Path_393" data-name="Path 393" d="M350.934,619.192h0a.571.571,0,0,1,.061.009c-.021,0-.042-.007-.063-.009" transform="translate(-203.455 -359.326)" fill="#f89393"/>
      <path id="Path_394" data-name="Path 394" d="M410.335,878.566l-.076.022.076-.022" transform="translate(-237.921 -509.757)" fill="#f89393"/>
      <path id="Path_395" data-name="Path 395" d="M363.5,606.24a57.394,57.394,0,0,1-13.368-4.506c-1.448-.68-2.88-1.4-4.316-2.1-1.053-.675-3.02-.891-2.945-2.473-1.166-.845-3.7-1.973-2.259-3.693,1.19-1.208,2.518.321,3.636.852a1.51,1.51,0,0,1,1.834-.66c.877.332,1.756.664,2.626,1.017,1.073.5,2.61.886,3.063,2.093,1.866.735,3.757,1.406,5.634,2.087a1.628,1.628,0,0,1,1.049.965,4.091,4.091,0,0,1,.383.153,1.342,1.342,0,0,1,.656.728,28.282,28.282,0,0,0,4.348,1.121c1.115.053,2.165.936,1.742,2.128.976,1.463-.6,2.833-2.082,2.287" transform="translate(-197.204 -344.144)" fill="#f99393"/>
      <path id="Path_396" data-name="Path 396" d="M229.092,979.365a1.481,1.481,0,0,1-1.019-.542,1.444,1.444,0,0,1-.146-.214c-.16.015-.321.026-.481.032a1.508,1.508,0,0,1-1.237-.58l-3.289.184a1.5,1.5,0,0,1-.114-2.989c10.832-.265,21.488-2.24,32.249-3.343,12.6-1.375,25.082-3.014,37.757-2.933a8.494,8.494,0,0,1,3.064.292,1.51,1.51,0,0,1-.254,2.76c-2.053.353-4.112.376-6.118.708a1.5,1.5,0,0,1-1.253.79c-1.579.049-3.157.084-4.738.089a81.031,81.031,0,0,0-8.3.495c-.977.772-2.426.338-3.589.54a2.283,2.283,0,0,1-1.94.788c-1.152.093-2.308.176-3.461.255-4.544.32-9.1.588-13.644.856-7.886.426-15.617,2.312-23.483,2.811" transform="translate(-128.198 -562.193)" fill="#f99393"/>
      <path id="Path_397" data-name="Path 397" d="M305.515,272.875c-13.4-2.7-17.629-18.266-20.672-29.8a217.407,217.407,0,0,0-10.276-31.112c-3.388-9.773-8.5-18.713-14.075-27.366-5.144-9.744-10.552-19.29-19.5-25.916-1.635-1.706-3.855-2.817-5.393-4.541a2.434,2.434,0,0,1-.313-1.865c-1.077-2.985,4.484-9.092,3.649-16.56-.926-18.888-23.227-24.221-36.061-12.558-2.313,2.057-4.361,4.628-4.853,7.765-.3,2.9-1.441,6.056-.678,8.886a2.835,2.835,0,0,1-5.035,2.368,28.057,28.057,0,0,1-2.971-.287,67.33,67.33,0,0,0-8.324.157c-12.545,1.372-24.978,4.819-37.717,3.529a79.008,79.008,0,0,1-9.329-1.842c-5.263,6.839-13.343,11.179-21.362,14.143-7.786,2.749-16.141,2.641-24.288,2.531-11.034.35-21.534-3.13-31.794-6.785q-4.571-1.486-9.132-3c4.955,12.035,12.116,22.913,19.83,33.375a149.217,149.217,0,0,0,12.632,14.132c2.32,1.51.881,5.058-1.574,4.936a50.392,50.392,0,0,1-11.575,5.5,51.415,51.415,0,0,1-24.475,2.92c-20.849-2.122-35.747-17.156-40.916-37.049-2.805-14.971-1.817-33.23,9.859-44.312,3.614-2.776,7.49-6.229,11.885-7.692a117.287,117.287,0,0,1,3.087-31c2.367-9.716,7.084-18.54,12.251-27.015A122.565,122.565,0,0,1,74.163,25.19,150.12,150.12,0,0,1,88.049,14.543C107.744,2.226,137.582-1.974,160.438.84c24.9,3.716,47.535,16.546,66.688,32.5,2.4,2.164,4.8,4.331,7.245,6.456a.009.009,0,0,0,.005,0,3.127,3.127,0,0,1,1.056.783A136.821,136.821,0,0,0,248,49.262c14.865,8.242,31.864,11.96,48.373,15.34,17.96,3.122,35.9,6.956,52.846,13.9,11.542,5.724,22.894,13.061,31.668,22.551A141.237,141.237,0,0,1,391.144,115c7.59,11.6,13.38,25.007,14.592,38.931.131,8.592-.816,28.111-13.893,23.229-5.512-3.055-8.269-9.141-12.174-13.945,3.071,7.657,4.983,15.733,4.423,24.082-.147,5.007,1.771,13.67-1.053,13.289-18.085-.923-45.943,2.271-63.179-3.336q-10.105-3.829-19.916-8.494a101.974,101.974,0,0,1,2.973,15.492c1.079,9.875.147,19.879,1.823,29.7a81.262,81.262,0,0,0,3.307,15.309c1.614,4.916,4.619,9.366,5.447,14.522a7.57,7.57,0,0,1-7.232,9.138,7.27,7.27,0,0,1-.748-.039" transform="translate(0.427 -0.21)" fill="#652424"/>
      <path id="Path_398" data-name="Path 398" d="M202.151,732.65c-11.653-1.76-23.456-4.987-32.97-12.235-15.415-11.513-25.7-29.6-26.506-48.968-.928-10.719.068-21.755,4.239-31.745,6.527-15.092,18.391-28.215,33.231-35.4,8.388-3.974,17.863-5.032,27.033-4.537a5.187,5.187,0,0,1,1.082.39c4.273-.7,8.8-.88,12.85.527,6.829,2.784,10.367,10.565,9.256,17.672a17.125,17.125,0,0,1-2.5,6.52c-1.04,1.563-3.3,4.33-5.532,5.378-.536,5.967-3.574,11.732-5.469,18.225-2.414,7.029-.913,13.292,4.261,18.577,4.384,4.682-.56,6.471-4.061,8.887-6.536,4.95-7.01,16.923,1.168,20.45,5.987,3.024,12.508-.214,16.468-4.976a3.74,3.74,0,0,1,1.963-.542c.014.016.029.029.044.045.158.189.306.381.445.582.02.029.038.056.058.085.48.7.891,1.452,1.34,2.176.464.74.945,1.47,1.353,2.246a16.066,16.066,0,0,1,.67,1.588c.31.881.565,1.772.817,2.672.238.851.478,1.7.673,2.562.152.711.312,1.421.474,2.131a14.582,14.582,0,0,1,.219,1.508c.046.524.083,1.047.082,1.571-.036,1.178-.194,2.35-.335,3.519-.051.375-.117.746-.2,1.117-.256.958-.544,1.911-.873,2.846-.313.826-.688,1.625-1.067,2.421-.3.611-.607,1.211-.948,1.8a23.948,23.948,0,0,1-1.371,1.986,14.218,14.218,0,0,1-1.073,1.166.085.085,0,0,1-.014.015c-.926.887-1.871,1.771-2.851,2.6-.409.326-.832.632-1.267.922-1.008.651-2.026,1.291-3.059,1.9-1.137.668-2.324,1.268-3.513,1.847-.937.441-1.893.836-2.839,1.254-.514.226-1.022.46-1.536.682a58.584,58.584,0,0,1-18.722.676c-.343-.042-.68-.088-1.022-.135" transform="translate(-82.277 -347.978)" fill="#652424"/>
      <path id="Path_399" data-name="Path 399" d="M257.217,600.053a1.823,1.823,0,0,1,2.039-.856,34.486,34.486,0,0,0,5.56-.987c2.42-.849,4.73-1.982,7.175-2.778a51.194,51.194,0,0,1,7.281-1.573,1.505,1.505,0,0,1,1.644,1.326c.119,1.115-.9,1.715-1.887,1.729-1.921.376-3.863.676-5.741,1.238-2.16.7-4.23,1.643-6.339,2.479a25.659,25.659,0,0,1-8.6,1.526,1.506,1.506,0,0,1-1.126-2.1" transform="translate(-148.924 -344.626)" fill="#652525"/>
      <path id="Path_400" data-name="Path 400" d="M297.332,623.773c.131-.817.755-1.118,1.4-1.323,1.2-.757,2.354-1.611,3.473-2.481,3.577-2.734,5.57-6.972,6.866-11.188-2.456-.434-1.428-3.715-1.5-5.474a2.348,2.348,0,0,1-.763-.506,5.4,5.4,0,0,1-1.16-1.825c-2.47-.533-4.5-2.73-5.631-4.909a3.912,3.912,0,0,1-.836-.52,6.421,6.421,0,0,1-2.667-.9c-4.84-.568-9.605.972-14.269,2.063-1.653.564-3.46-.448-2.509-2.3a13.6,13.6,0,0,1,2.988-2.142,26.106,26.106,0,0,1,12.922-3.783c8.095.126,17.694,5.191,17.274,14.382-.115,7.568-3.716,16.038-10.064,20.345-1.354.834-2.6,2.291-4.293,2.272a1.505,1.505,0,0,1-1.234-1.716" transform="translate(-161.94 -341.519)" fill="#652525"/>
      <path id="Path_401" data-name="Path 401" d="M239.534,601.288a1.51,1.51,0,0,1,.132-2.494,16.884,16.884,0,0,1,2.441-1.148,73.064,73.064,0,0,1,11.624-3.617c4.146-.938,8.414-1.14,12.6-1.693a25.427,25.427,0,0,0,3.594-.01,1.508,1.508,0,0,1,1.507,1.483c-.044,1.836-2.154,1.5-3.436,1.578.87,1.473-1.006,3.265-2.348,2.078-1.87.092-6.951,1.756-8.161.3-1.579.348-3.153.712-4.737,1.039a1.71,1.71,0,0,1-.86-.038c-1.2.35-2.391.709-3.586,1.064a2.082,2.082,0,0,1-2.155-.153c-1.356.445-2.39.815-3.674,1.288a5.78,5.78,0,0,1-2.246.614,1.407,1.407,0,0,1-.7-.291" transform="translate(-138.388 -343.744)" fill="#652525"/>
      <path id="Path_402" data-name="Path 402" d="M299.254,303.41c-.748-.587-.55-1.526-.249-2.281a27.438,27.438,0,0,0,.793-6.01c-.11-3.048-1.563-5.906-3.169-8.407-1.826-3.083-3.948-6.126-7.257-7.736-.8-.423-1.639-.748-2.469-1.111a1.5,1.5,0,0,1,1.269-2.709c5.1,1.828,8.325,5.31,10.929,9.884,3.008,4.345,4.512,9.574,3.206,14.8-.255,1.344-.52,3.926-1.987,3.926a2.094,2.094,0,0,1-1.065-.359" transform="translate(-165.761 -159.709)" fill="#401717"/>
      <path id="Path_403" data-name="Path 403" d="M513.1,318.534a5.933,5.933,0,0,0-6.676-5.577,12.957,12.957,0,0,0-2.5.292,7.292,7.292,0,0,1-4.262-.054c-3.843-2.377-1.7-8.9-.026-12.113a19.658,19.658,0,0,1,2.579-3.05,7.518,7.518,0,0,1,2.551-1.94c2.327-.748,3.3,2.524.858,2.905a12.784,12.784,0,0,0-4.044,4.918c-.618,2.031-1.683,4.536-.627,6.563a6.43,6.43,0,0,0,2.262-.159c5.984-1.379,12.158.987,12.83,7.716a1.483,1.483,0,0,1-1.5,1.826,1.431,1.431,0,0,1-1.451-1.329" transform="translate(-288.615 -171.873)" fill="#e8728a"/>
      <path id="Path_404" data-name="Path 404" d="M264.018,453.445a1.512,1.512,0,0,1,.5-2.943,40.208,40.208,0,0,0,4.134-.739,17.8,17.8,0,0,0,4.624-2.73c4.512-3.873,7.355-10.167,6.461-16.114-.256-1.166-.6-2.5.893-2.936a1.509,1.509,0,0,1,1.793,1.117c2.62,11.16-6.351,24.346-18.11,24.346q-.15,0-.3,0" transform="translate(-152.362 -248.408)" fill="#2e1010"/>
      <path id="Path_405" data-name="Path 405" d="M215.166,416.738c-5.921-2.279-2.012-10.02.371-13.713a30.5,30.5,0,0,1,12.014-10.263c3.465-1.732,9.649-1.351,8.075,3.969-1.25,3.791-4.96,5.619-8.024,7.721a17.076,17.076,0,0,0-5.274,5.85c-1.444,2.833-2.125,6.688-5.523,6.688a6.021,6.021,0,0,1-1.638-.252" transform="translate(-122.768 -227.467)" fill="#652424"/>
      <path id="Path_406" data-name="Path 406" d="M328.439,553.78a1.807,1.807,0,0,0-.651-.362,3.628,3.628,0,0,0-1.609-.138.069.069,0,0,1-.021,0,1.708,1.708,0,0,0-.59-.055,1.788,1.788,0,0,1,.156-.15c.98-.984,1.9-2.024,2.81-3.067,4.794-6.026,5.149-14.61,3.022-21.779a1.493,1.493,0,0,1,2.887-.762c2.465,8.358,1.784,18.554-4.283,25.21a14.044,14.044,0,0,0-1.1,1.261,6.267,6.267,0,0,0-.619-.153" transform="translate(-188.718 -305.49)" fill="#e85875"/>
      <path id="Path_407" data-name="Path 407" d="M833.67,1071.756a96.173,96.173,0,0,0-10.608-5.289c-6.039-2.66-12.128-5.219-18.3-7.543-8.191-3.06-16.7-4.866-25.17-6.93a14.191,14.191,0,0,1-2.068-.486,1.5,1.5,0,0,1,1.231-2.719c4.564.853,9.045,2.118,13.539,3.282a99.864,99.864,0,0,1,13.606,4.083c6.067,2.293,12.078,4.817,18.011,7.426a96.688,96.688,0,0,1,11.123,5.512,1.506,1.506,0,0,1-.663,2.831,1.623,1.623,0,0,1-.7-.167" transform="translate(-450.856 -608.433)" fill="#e8728a"/>
      <path id="Path_408" data-name="Path 408" d="M520.46,1232.985c-9.8-6.786-18.976-14.139-26.947-22.913-5.806-5.953-10.444-12.874-15.259-19.622a1.494,1.494,0,0,1,2.453-1.706c3.1,4.317,6.109,8.709,9.371,12.906a172.039,172.039,0,0,0,11.96,12.884,178.36,178.36,0,0,0,20.334,16.15,1.516,1.516,0,0,1-.968,2.658,1.5,1.5,0,0,1-.944-.358" transform="translate(-277.266 -689.279)" fill="#e8728a"/>
      <path id="Path_409" data-name="Path 409" d="M638.489,1247.5c-.6-.344-1.2-.68-1.807-1.019l-.126-.084c-.716-.484-1.446-.956-2.19-1.393a1.565,1.565,0,0,1,.877-.105c3.092-.378,6.2-.6,9.306-.869,2.064-.178,4.13-.337,6.112-.5.124.241.262.477.392.709.259.458.52.916.791,1.369.147.248.294.517.45.781q-.8.085-1.607.133-6.058.488-12.116,1.026c-.028-.016-.054-.033-.082-.047" transform="translate(-368.12 -721.428)" fill="#c95372"/>
      <path id="Path_410" data-name="Path 410" d="M673.853,1243.812l.028.042c.018.031.037.059.056.089-.028-.044-.056-.089-.084-.131" transform="translate(-391.061 -721.591)" fill="#132935"/>
      <path id="Path_411" data-name="Path 411" d="M736.648,1154.723c-.648-.884-1.4-1.695-2.113-2.524,21.21-5,41.639-12.965,62.05-20.526,17.72-6.766,34.959-14.7,52.564-21.742,14.716-5.485,29.682-10.319,45.1-13.383,4.482-.837,9-1.435,13.529-1.931l.058-.007c.182.979.345,1.961.478,2.95-2.544.271-5.083.582-7.614.951-16.192,2.424-31.9,7.545-47.284,13.012-13.315,4.95-26.163,11.067-39.34,16.371-13.137,5.451-26.487,10.345-39.846,15.214-12.33,4.4-24.792,8.639-37.542,11.666l-.035-.049" transform="translate(-426.315 -635.057)" fill="#c95372"/>
      <path id="Path_412" data-name="Path 412" d="M839.149,948.094c-.7-.2-1.42-.376-2.136-.547l-.984-.267c8.4-2.417,16.908-4.455,25.452-6.054,4.955-.993,9.95-1.725,14.963-2.311l.373.1q1.106.3,2.211.605l1.39.414.2.063q1.693.53,3.395,1.014a249.876,249.876,0,0,0-42.388,7.718q-1.231-.385-2.478-.734" transform="translate(-485.28 -544.758)" fill="#c95372"/>
      <path id="Path_413" data-name="Path 413" d="M402.059,705.679a1.5,1.5,0,0,1,1.423-1.378,25.868,25.868,0,0,0,3.17-.927,13.476,13.476,0,0,0,4.463-3.489,11.643,11.643,0,0,0,2.059-4.093c.305-1.24.358-2.934,2.109-2.671a1.514,1.514,0,0,1,1.149,1.774,14.964,14.964,0,0,1-3.378,7.336,15.288,15.288,0,0,1-6.4,4.305,12.135,12.135,0,0,1-3.146.708c-.8-.027-1.412-.406-1.451-1.566" transform="translate(-233.157 -402.187)" fill="#2e1010"/>
      <path id="Path_414" data-name="Path 414" d="M376.984,671.927c-.877-1.043-.228-2.452.2-3.548.734-2.3,3-3.333,5-4.327a1.5,1.5,0,0,1,1.314,2.685,13.219,13.219,0,0,0-3.053,1.83,7.473,7.473,0,0,0-.868,1.94,1.511,1.511,0,0,1-1.564,1.925,1.381,1.381,0,0,1-1.032-.505" transform="translate(-218.336 -385.252)" fill="#652424"/>
      <path id="Path_415" data-name="Path 415" d="M327.227,800.811c-1.107-.038-1.606-1.217-1.5-2.177a5.676,5.676,0,0,1,2.009-3.365,7.794,7.794,0,0,1,4.866-2.257,1.494,1.494,0,0,1,.872,2.855,10.872,10.872,0,0,0-2.471.643,5.576,5.576,0,0,0-2.265,2.323,1.5,1.5,0,0,1-1.468,1.98l-.046,0" transform="translate(-188.804 -460.107)" fill="#e8728a"/>
      <path id="Path_416" data-name="Path 416" d="M353.436,394.075l2.788,2.393h2.995c.1.525.2,1.071.331,1.762l.861-.531.393,1.1h1.964l.429-1.049,2.647,2.074-.557.672,2.455.25v3.076l1.71-.677.116.878-1.48.522,1.632.463.17-.151.867,2.551-.7.894.762,1.288-1.3,1.3.53.835c-.557.982-1.312,1.971-1.1,3.29l-1.242,1.588,1.912.387-.616.676,2.134,3.524-1.509-.776c-1.337-.062-.781,2.109-2.3,1.725.148-.58.282-1.108.462-1.814-2.041.238-1.837,1.956-2.957,3.028l-.961.087-1,1.7-1.329-.721a4.193,4.193,0,0,0-.338.85,1.44,1.44,0,0,0,1.184,1.71l-.49.874-2.261-2.079h-2.4l-.368-1.062c-.137.046-.363.056-.4.142-.435,1.112-.841,2.235-1.483,3.97-.443-1.641-.734-2.573.128-3.272l-2.777-1.395c-.381.814.436,2.2-1.056,2.726l-.792-.745.544-.687a5.676,5.676,0,0,0-1.017-.848c-.608-.31-1.591.543-1.986-.643a1.21,1.21,0,0,0,.085.09l.488-.418-.188-.189a3.359,3.359,0,0,0-.385.516,9.216,9.216,0,0,1-.881.54c-1.011-.438-.936-1.376-.841-2.354.592-.736.592-.736.037-1.729,0,.679,0,1.227-.037,1.729-1.135-.91-2.234-1.866-3.432-2.909l-1.233-.11c.1-.779.19-1.481.287-2.241l-.781-.055-.556,1.212c-1.384-.228-1.58-1.111-1.514-2.178l-1.467-.719a10.838,10.838,0,0,1,1.727-1.337,2.41,2.41,0,0,1-.284.019q.114.585.228,1.169l.385-.049a2.125,2.125,0,0,0-.33-1.139,14.157,14.157,0,0,1-1.72-2.254l-.856.487c.2-1.112.379-2.061.553-3.011h1.22l-.531-.935.477-.555-.626-.684,1.949-1.279-.563-1.055c.153-.49,1.126-1.143-.1-1.647.561-1.342,1.267-2.561,1.161-4.017l.889-.416c-.032-.007.185-.021.227.058a8.085,8.085,0,0,0,1.331,2.038l-.729-4.614h3.213l.655,1.227.349-.226-.594-2.743.411-.145,1.136,1.83h.872l.189,1.306c.425-.426.789-.646.926-.964.183-.426.184-.923-.519-.941l-1.108-.9.512-.895,2.117,1.035,1.128-.561.565,1.25,1.563-1.126m4.776,3.141h-1.791v.3h1.791Zm-1.045,2.244h.3v-1.2h-.3Zm12.292,7.677c-.021-.172-.043-.345-.065-.517l-.971.232.047.285Zm-28.708,1.3h-.3v1.2h.3Zm-1.532,3.692c.008.171.016.343.023.515l1.007-.22c-.013-.1-.026-.2-.039-.294Zm14.814,12.264h.6v-.2h-.6Zm-11.541-8.776h-.2v.6h.2Zm22.883-12.166h.6v-.2h-.6Zm-19.7-5.385h.6v-.2h-.6Zm-1.99-1h-.2v.6h.2Z" transform="translate(-195.223 -228.417)" fill="#f87a7a"/>
      <path id="Path_417" data-name="Path 417" d="M406.193,767.038l.885,2.458-2.873,2.1c-1.82.273-3.33-.5-4.264-2.564l-1.169.882-.9-1.248-1.147.715-3.32-4.908-.742-.261.667-.733-1.1-.376a4.721,4.721,0,0,1,.747-4.039h1.254c.359-2.158,2.841-2.3,3.776-3.959l-.633-.635,1.236-.192-.421-.525H405.3l.735,1.2.576-.577L408.705,757l-.6.7,2.546.262-.763.975,1.157,1.585-.561,1.129,1.287.642v1.245l-1.179.564.493.519a8.068,8.068,0,0,0-.479,1.088c-.537,1.88-.616,1.918-2.609,1.21a2.616,2.616,0,0,0-.854-.09,6.649,6.649,0,0,0-.953.2m-7.73-3.2h-.2v.6h.2Zm3.78,4.588h.6v-.2h-.6Z" transform="translate(-227.336 -437.368)" fill="#f87a7a"/>
      <path id="Path_418" data-name="Path 418" d="M400.37,468.706,401.445,467l.665,1.317c-.636.541-.636.541-1.739.39" transform="translate(-232.176 -271.058)" fill="#f87a7a"/>
      <path id="Path_419" data-name="Path 419" d="M413.183,443.034h.923l.572-1.252c.7,1.11.266,1.82-.241,2.13l-1.546-.586.292-.292" transform="translate(-239.45 -256.432)" fill="#f87a7a"/>
      <path id="Path_420" data-name="Path 420" d="M428.544,786.28l.717.952c-.993.746-1.229-.239-1.979-.838l1.262-.114" transform="translate(-247.811 -456.233)" fill="#f87a7a"/>
      <path id="Path_421" data-name="Path 421" d="M391.982,475.146h-.989q-.024-.142-.047-.285l.971-.232.065.517" transform="translate(-226.701 -275.483)" fill="#f87a7a"/>
      <rect id="Rectangle_533" data-name="Rectangle 533" width="0.597" height="0.2" transform="translate(154.034 197.571)" fill="#f87a7a"/>
      <rect id="Rectangle_534" data-name="Rectangle 534" width="0.199" height="0.599" transform="translate(157.815 197.372)" fill="#f87a7a"/>
      <path id="Path_422" data-name="Path 422" d="M397.769,472.45l.416-.489.188.189-.488.417-.117-.117" transform="translate(-230.664 -273.936)" fill="#f87a7a"/>
      <path id="Path_423" data-name="Path 423" d="M362.923,392.791l-.488-.417.188-.189.416.489-.117.117" transform="translate(-210.137 -227.667)" fill="#f87a7a"/>
      <rect id="Rectangle_535" data-name="Rectangle 535" width="0.199" height="0.598" transform="translate(140.503 184.807)" fill="#f87a7a"/>
      <rect id="Rectangle_536" data-name="Rectangle 536" width="0.199" height="0.599" transform="translate(175.723 183.011)" fill="#f87a7a"/>
      <path id="Path_424" data-name="Path 424" d="M337.28,429.83l-.488-.417.188-.189.416.489-.117.117" transform="translate(-195.239 -249.149)" fill="#f87a7a"/>
      <path id="Path_425" data-name="Path 425" d="M344.4,405.612l-.488-.417.188-.189.416.489-.116.117" transform="translate(-199.377 -235.103)" fill="#f87a7a"/>
      <path id="Path_426" data-name="Path 426" d="M363.728,398.349l.6-.6-.6.6" transform="translate(-210.888 -230.895)" fill="#f87a7a"/>
      <path id="Path_427" data-name="Path 427" d="M376.4,394.1l.416-.489.188.189-.488.417-.116-.117" transform="translate(-218.25 -228.493)" fill="#f87a7a"/>
    </g>
  </g>
</svg>
