<svg id="Group_2856" data-name="Group 2856" xmlns="http://www.w3.org/2000/svg" width="590" height="245" viewBox="0 0 590 245">
  <g id="Group_2844" data-name="Group 2844" transform="translate(397.519 56.644)">
    <path id="Path_5284" data-name="Path 5284" d="M-200.449,274.338c3.083,2.933,3.2,8.631,3.2,8.631s.117-5.7,3.2-8.631a15.028,15.028,0,0,1,7.414-3.533s-5.447-1.265-7.482-3.6-3.13-8.567-3.13-8.567-1.093,6.232-3.129,8.567-7.483,3.6-7.483,3.6A15.021,15.021,0,0,1-200.449,274.338Z" transform="translate(322.511 -212.563)" fill="#ffd400"/>
    <path id="Path_5285" data-name="Path 5285" d="M-298.377,386.728c1.7,1.618,1.764,4.758,1.764,4.758s.064-3.14,1.763-4.758a8.275,8.275,0,0,1,4.087-1.948s-3-.7-4.125-1.983-1.726-4.723-1.726-4.723-.6,3.436-1.726,4.723-4.126,1.983-4.126,1.983A8.273,8.273,0,0,1-298.377,386.728Z" transform="translate(342.806 -224.478)" fill="#ffd400"/>
    <path id="Path_5286" data-name="Path 5286" d="M-152.8,330.092c2.076,1.975,2.154,5.81,2.154,5.81s.079-3.835,2.155-5.81a10.114,10.114,0,0,1,4.991-2.378s-3.667-.852-5.038-2.423-2.107-5.767-2.107-5.767-.736,4.2-2.107,5.767-5.037,2.423-5.037,2.423A10.111,10.111,0,0,1-152.8,330.092Z" transform="translate(311.77 -218.637)" fill="#1d8d9c"/>
    <path id="Path_5287" data-name="Path 5287" d="M-350.972,383.748a5.4,5.4,0,0,1,1.231,3.32,5.409,5.409,0,0,1,1.231-3.32,5.789,5.789,0,0,1,2.852-1.358,6.866,6.866,0,0,1-2.879-1.384,9.145,9.145,0,0,1-1.2-3.295,9.138,9.138,0,0,1-1.2,3.295,6.866,6.866,0,0,1-2.879,1.384A5.782,5.782,0,0,1-350.972,383.748Z" transform="translate(353.823 -224.442)" fill="#1d8d9c"/>
    <path id="Path_5288" data-name="Path 5288" d="M-186.553,213.495a5.409,5.409,0,0,1,1.231,3.319,5.406,5.406,0,0,1,1.23-3.319,5.775,5.775,0,0,1,2.852-1.359,6.867,6.867,0,0,1-2.879-1.384,9.153,9.153,0,0,1-1.2-3.295,9.144,9.144,0,0,1-1.2,3.295,6.862,6.862,0,0,1-2.879,1.384A5.772,5.772,0,0,1-186.553,213.495Z" transform="translate(318.552 -207.457)" fill="#1d8d9c"/>
    <path id="Path_5289" data-name="Path 5289" d="M-202.649,323.769a5.785,5.785,0,0,1,1.316,3.55,5.782,5.782,0,0,1,1.316-3.55,6.181,6.181,0,0,1,3.049-1.454,7.335,7.335,0,0,1-3.078-1.479,9.771,9.771,0,0,1-1.287-3.524,9.784,9.784,0,0,1-1.288,3.524,7.333,7.333,0,0,1-3.077,1.479A6.181,6.181,0,0,1-202.649,323.769Z" transform="translate(322.047 -218.416)" fill="#91b508"/>
    <path id="Path_5290" data-name="Path 5290" d="M-202.432,373.479c1.525,1.45,1.583,4.268,1.583,4.268s.057-2.818,1.583-4.268a7.427,7.427,0,0,1,3.667-1.748s-2.694-.625-3.7-1.78-1.548-4.237-1.548-4.237-.541,3.083-1.548,4.237-3.7,1.78-3.7,1.78A7.428,7.428,0,0,1-202.432,373.479Z" transform="translate(322.133 -223.245)" fill="#de212b"/>
    <path id="Path_5291" data-name="Path 5291" d="M-326.18,357.987a4.491,4.491,0,0,1,1.021,2.757,4.491,4.491,0,0,1,1.023-2.757,4.8,4.8,0,0,1,2.369-1.129,5.7,5.7,0,0,1-2.391-1.15,7.6,7.6,0,0,1-1-2.737,7.594,7.594,0,0,1-1,2.737,5.7,5.7,0,0,1-2.392,1.15A4.8,4.8,0,0,1-326.18,357.987Z" transform="translate(348.402 -221.974)" fill="#de212b"/>
    <path id="Path_5292" data-name="Path 5292" d="M-125.3,258.3a4.482,4.482,0,0,1,1.022,2.757,4.487,4.487,0,0,1,1.023-2.757,4.788,4.788,0,0,1,2.368-1.129,5.718,5.718,0,0,1-2.391-1.15,7.593,7.593,0,0,1-1-2.738,7.6,7.6,0,0,1-1,2.738,5.72,5.72,0,0,1-2.392,1.15A4.79,4.79,0,0,1-125.3,258.3Z" transform="translate(305.307 -212.029)" fill="#de212b"/>
  </g>
  <g id="Group_2849" data-name="Group 2849" transform="translate(0 35.159)">
    <g id="Group_2846" data-name="Group 2846" transform="translate(0 34.612)">
      <g id="Group_2845" data-name="Group 2845" transform="translate(0)">
        <path id="Path_5293" data-name="Path 5293" d="M-418.1,260.412c5.813-4.786,24.6-26.072,30.02-31.805,3.216-3.4.006-8.216-4.208-4.925-9.847,7.68-33.906,29.643-33.906,29.643s-1.76-.187-.164-1.525c6.592-5.526,28.182-25.042,35.839-31.609,5.206-4.465,1-9.442-5.1-4.814-13.369,10.143-38.988,29.924-38.988,29.924s-1.588-.243-.251-1.491c5.211-4.865,26.809-20.357,32.531-25.911,4.871-4.724.859-8.063-4.4-5-5.118,2.981-41.721,26.45-41.721,26.45L-459.116,245l-1.6-.354s5.711-9.044,7.652-13.864-1.87-12.861-5.191-8.478c-6.471,8.547-16.164,19.642-18.828,26.1-5.424,13.142-8.182,33.371-8.182,33.371l-48.707,34.712v33.152l7.642,4.318,59.054-52.514c11.794-4.833,13.255-1.619,25.45-9.175,5.037-3.123,14.929-10.807,23.852-19.889,11.321-11.521,21.839-24.968,27.234-30.685,3.473-3.679-.592-5.8-3.023-3.491-9.361,8.921-22.043,21.126-22.043,21.126C-417.281,260.693-419.668,261.7-418.1,260.412Z" transform="translate(533.973 -211.717)" fill="#df845d"/>
      </g>
      <path id="Path_5294" data-name="Path 5294" d="M-533.974,378.513l58.962-55.359L-495.352,298.9l-38.621,25.073Z" transform="translate(533.974 -224.367)" fill="#00a4de"/>
      <path id="Path_5295" data-name="Path 5295" d="M-533.974,346.82l48.469-36.179-9.848-11.743-38.621,25.073Z" transform="translate(533.974 -224.367)" fill="#b3c6d0" style="mix-blend-mode: multiply;isolation: isolate"/>
    </g>
    <g id="Group_2848" data-name="Group 2848" transform="translate(0 25.529)">
      <g id="Group_2847" data-name="Group 2847" transform="translate(8.982)">
        <path id="Path_5296" data-name="Path 5296" d="M-474.443,291.395s-5.063-19.594-4.948-33.462c.058-6.816,4.954-20.13,7.791-30.074,1.456-5.1,8.071,1.148,8.074,6.221s-1.933,15.238-1.933,15.238l1.636-.175,7.874-8.583s25.457-33.214,29.13-37.579c3.77-4.481,8.8-2.648,6.016,3.255-3.269,6.937-17.667,28.057-20.713,34.2-.783,1.576.8,1.3.8,1.3s16.548-26.353,25.252-39.938c3.971-6.2,9.8-2.912,6.605,2.855-4.7,8.485-17.567,33.327-21.659,40.512-.991,1.74.73,1.361.73,1.361s14.261-27.884,20.589-38.084c2.709-4.369,7.542-.921,5.811,3.239-2.917,7.009-12.487,32.612-16.13,38.866-.984,1.69.875.005,1.737-1.725,0,0,7.279-15.278,12.686-26.476,1.4-2.9,6.021-2.213,4.155,2.283-2.9,6.986-7.679,22.736-13.94,36.956-4.934,11.208-11.305,21.427-14.848,25.9-8.58,10.821-11.168,8.3-20.4,16.479l-35.529,67.151-38.684-7.034Z" transform="translate(524.342 -198.453)" fill="#f7a67b"/>
      </g>
      <path id="Path_5297" data-name="Path 5297" d="M-485.824,403.054l29.51-64.63-28.655-15.687-49,68.935v11.383Z" transform="translate(533.974 -218.743)" fill="#00a4de"/>
      <path id="Path_5298" data-name="Path 5298" d="M-515.508,403.054l44.412-72.723-13.873-7.595-49,68.935v11.383Z" transform="translate(533.974 -218.743)" fill="#b3c6d0" style="mix-blend-mode: multiply;isolation: isolate"/>
      <path id="Path_5299" data-name="Path 5299" d="M-482.807,353.122a3.2,3.2,0,0,1-1.98,4.269,3.7,3.7,0,0,1-4.658-1.814,3.2,3.2,0,0,1,1.98-4.268A3.7,3.7,0,0,1-482.807,353.122Z" transform="translate(530.987 -222.233)" fill="#fff"/>
      <path id="Path_5300" data-name="Path 5300" d="M-476.41,342.264a3.2,3.2,0,0,1-1.979,4.27,3.7,3.7,0,0,1-4.658-1.815,3.2,3.2,0,0,1,1.979-4.269A3.7,3.7,0,0,1-476.41,342.264Z" transform="translate(530.555 -220.541)" fill="#fff"/>
    </g>
    <line id="Line_240" data-name="Line 240" x1="16.125" y1="4.852" transform="translate(48.433 41.517)" fill="none" stroke="#a3a3a3" stroke-linecap="round" stroke-width="1.86"/>
    <line id="Line_241" data-name="Line 241" x2="12.302" y2="3.46" transform="translate(149.13 86.749)" fill="none" stroke="#a3a3a3" stroke-linecap="round" stroke-width="1.86"/>
    <line id="Line_242" data-name="Line 242" y1="10.677" x2="6.525" transform="translate(134.622 6.398)" fill="none" stroke="#a3a3a3" stroke-linecap="round" stroke-width="1.86"/>
    <line id="Line_243" data-name="Line 243" x1="7.288" y1="11.774" transform="translate(72.702 15.258)" fill="none" stroke="#a3a3a3" stroke-linecap="round" stroke-width="1.86"/>
    <line id="Line_244" data-name="Line 244" y1="4.769" x2="15.205" transform="translate(153.748 37.275)" fill="none" stroke="#a3a3a3" stroke-linecap="round" stroke-width="1.86"/>
    <line id="Line_245" data-name="Line 245" x1="0.814" y1="14.447" transform="translate(101.138)" fill="none" stroke="#a3a3a3" stroke-linecap="round" stroke-width="1.86"/>
    <line id="Line_246" data-name="Line 246" x2="12.44" y2="0.419" transform="translate(161.575 66.005)" fill="none" stroke="#a3a3a3" stroke-linecap="round" stroke-width="1.86"/>
    <line id="Line_247" data-name="Line 247" x2="10.698" y2="11.551" transform="translate(132.453 102.52)" fill="none" stroke="#a3a3a3" stroke-linecap="round" stroke-width="1.86"/>
  </g>
  <g id="Group_2854" data-name="Group 2854" transform="translate(424.865 35.159)">
    <g id="Group_2851" data-name="Group 2851" transform="translate(23.452 38.064)">
      <g id="Group_2850" data-name="Group 2850">
        <path id="Path_5301" data-name="Path 5301" d="M-140.77,359.035l-55.517-49.464s-2.413-22.122-7.157-36.494c-2.331-7.062-10.81-19.2-16.471-28.544-2.9-4.793-6.239,4-4.541,9.272s6.694,15.163,6.694,15.163l-1.4.387-9.339-6.183s-32.02-25.666-36.5-28.926c-4.6-3.345-8.106.307-3.845,5.473,5,6.073,23.9,23.015,28.457,28.336,1.171,1.366-.219,1.632-.219,1.632s-22.411-21.633-34.106-32.726c-5.336-5.061-9.018.381-4.463,5.264,6.7,7.183,25.584,28.526,31.352,34.57,1.395,1.463-.144,1.668-.144,1.668s-21.047-24.019-29.661-32.419c-3.686-3.6-6.494,1.665-3.681,5.385,4.744,6.271,21.176,29.549,26.261,34.783,1.375,1.415-.713.309-2-1.189,0,0-11.094-13.347-19.283-23.1-2.126-2.53-5.683-.208-2.645,3.817,4.719,6.252,13.921,20.959,23.824,33.559,7.805,9.932,16.459,18.335,20.865,21.751,10.668,8.264,11.946,4.749,22.264,10.034l51.659,57.432,19.595-13.841Z" transform="translate(282.453 -232.959)" fill="#df845d"/>
      </g>
      <path id="Path_5302" data-name="Path 5302" d="M-123.337,410.406v-52.37l-46.694-37.9-17.794,26.529,54.3,63.738Z" transform="translate(265.02 -238.629)" fill="#00a4de"/>
      <path id="Path_5303" data-name="Path 5303" d="M-121.264,358.036l-46.694-37.9-8.615,12.843,55.309,51.614Z" transform="translate(262.947 -238.629)" fill="#b3c6d0" style="mix-blend-mode: multiply;isolation: isolate"/>
    </g>
    <g id="Group_2853" data-name="Group 2853" transform="translate(36.037 27.92)">
      <g id="Group_2852" data-name="Group 2852">
        <path id="Path_5304" data-name="Path 5304" d="M-223.613,335.156l28.107,66.461h33.865l2.947-.671-43.651-79.539s4.43-21.444,4.328-36.62c-.05-7.458-4.333-22.028-6.815-32.911-1.273-5.58-7.06,1.255-7.063,6.808s1.691,16.676,1.691,16.676l-1.431-.192-6.888-9.393S-240.792,229.426-244,224.65c-3.3-4.9-7.694-2.9-5.263,3.562,2.859,7.59,15.455,30.7,18.119,37.421.684,1.725-.7,1.426-.7,1.426s-14.475-28.841-22.09-43.707c-3.474-6.782-8.572-3.186-5.778,3.125,4.108,9.285,15.367,36.472,18.947,44.333.867,1.9-.639,1.491-.639,1.491s-12.475-30.515-18.011-41.678c-2.371-4.78-6.6-1.007-5.083,3.544,2.552,7.672,10.922,35.689,14.11,42.534.861,1.85-.765.007-1.52-1.888,0,0-6.367-16.72-11.1-28.974-1.228-3.178-5.267-2.421-3.635,2.5,2.535,7.644,6.717,24.882,12.195,40.442,4.316,12.267,9.89,23.449,12.99,28.342C-233.954,328.964-231.69,326.21-223.613,335.156Z" transform="translate(267.026 -219.695)" fill="#f7a67b"/>
      </g>
      <path id="Path_5305" data-name="Path 5305" d="M-144.154,411.957l-38.654-67.978-25.067,17.156,18.561,50.822Z" transform="translate(256.129 -230.036)" fill="#00a4de"/>
      <path id="Path_5306" data-name="Path 5306" d="M-141.234,411.957l-38.654-67.978-12.136,8.306,29.149,59.672Z" transform="translate(253.208 -230.036)" fill="#b3c6d0" style="mix-blend-mode: multiply;isolation: isolate"/>
      <path id="Path_5307" data-name="Path 5307" d="M-176.313,374.556a3.783,3.783,0,0,0,1.732,4.669,3.01,3.01,0,0,0,4.074-1.985,3.783,3.783,0,0,0-1.731-4.668A3.011,3.011,0,0,0-176.313,374.556Z" transform="translate(250.356 -231.441)" fill="#fff"/>
      <path id="Path_5308" data-name="Path 5308" d="M-182.711,363.7a3.786,3.786,0,0,0,1.73,4.67,3.013,3.013,0,0,0,4.075-1.985,3.783,3.783,0,0,0-1.731-4.67A3.01,3.01,0,0,0-182.711,363.7Z" transform="translate(251.535 -230.605)" fill="#fff"/>
    </g>
    <line id="Line_248" data-name="Line 248" y1="5.307" x2="14.106" transform="translate(95.752 45.403)" fill="none" stroke="#a3a3a3" stroke-linecap="round" stroke-width="1.86"/>
    <line id="Line_249" data-name="Line 249" x1="10.762" y2="3.784" transform="translate(11.007 94.871)" fill="none" stroke="#a3a3a3" stroke-linecap="round" stroke-width="1.86"/>
    <line id="Line_250" data-name="Line 250" x1="5.708" y1="11.677" transform="translate(28.753 6.997)" fill="none" stroke="#a3a3a3" stroke-linecap="round" stroke-width="1.86"/>
    <line id="Line_251" data-name="Line 251" y1="12.876" x2="6.376" transform="translate(82.252 16.687)" fill="none" stroke="#a3a3a3" stroke-linecap="round" stroke-width="1.86"/>
    <line id="Line_252" data-name="Line 252" x1="13.301" y1="5.216" transform="translate(4.428 40.764)" fill="none" stroke="#a3a3a3" stroke-linecap="round" stroke-width="1.86"/>
    <line id="Line_253" data-name="Line 253" y1="15.8" x2="0.711" transform="translate(63.04 0)" fill="none" stroke="#a3a3a3" stroke-linecap="round" stroke-width="1.86"/>
    <line id="Line_254" data-name="Line 254" x1="10.882" y2="0.458" transform="translate(0 72.185)" fill="none" stroke="#a3a3a3" stroke-linecap="round" stroke-width="1.86"/>
    <line id="Line_255" data-name="Line 255" x1="9.359" y2="12.633" transform="translate(26.999 112.112)" fill="none" stroke="#a3a3a3" stroke-linecap="round" stroke-width="1.86"/>
  </g>
  <path id="Path_5309" data-name="Path 5309" d="M-453.911,179.206a5.4,5.4,0,0,1-1.231-3.319,5.41,5.41,0,0,1-1.231,3.319,5.771,5.771,0,0,1-2.851,1.359,6.854,6.854,0,0,1,2.878,1.385,9.151,9.151,0,0,1,1.2,3.294,9.12,9.12,0,0,1,1.2-3.294,6.854,6.854,0,0,1,2.878-1.385A5.771,5.771,0,0,1-453.911,179.206Z" transform="translate(848.679 -44.549)" fill="#1d8d9c"/>
  <path id="Path_5310" data-name="Path 5310" d="M-132.244,150.66c-3.083-2.933-3.2-8.631-3.2-8.631s-.116,5.7-3.2,8.631a15.013,15.013,0,0,1-7.413,3.533s5.447,1.264,7.482,3.6,3.13,8.566,3.13,8.566,1.094-6.232,3.13-8.566,7.482-3.6,7.482-3.6A15.009,15.009,0,0,1-132.244,150.66Z" transform="translate(706.771 -142.029)" fill="#ffd400"/>
  <path id="Path_5311" data-name="Path 5311" d="M-196.729,145.565a5.4,5.4,0,0,1-1.23-3.32,5.412,5.412,0,0,1-1.231,3.32,5.78,5.78,0,0,1-2.853,1.358,6.867,6.867,0,0,1,2.88,1.384,9.168,9.168,0,0,1,1.2,3.3,9.145,9.145,0,0,1,1.2-3.3,6.86,6.86,0,0,1,2.878-1.384A5.775,5.775,0,0,1-196.729,145.565Z" transform="translate(718.781 -142.051)" fill="#1d8d9c"/>
  <path id="Path_5312" data-name="Path 5312" d="M-179.614,206.66a5.412,5.412,0,0,1-1.231-3.32,5.407,5.407,0,0,1-1.231,3.32,5.781,5.781,0,0,1-2.851,1.359,6.866,6.866,0,0,1,2.879,1.384,9.137,9.137,0,0,1,1.2,3.295,9.143,9.143,0,0,1,1.2-3.295,6.866,6.866,0,0,1,2.879-1.384A5.782,5.782,0,0,1-179.614,206.66Z" transform="translate(715.11 -148.669)" fill="#ffd400"/>
  <path id="Path_5313" data-name="Path 5313" d="M-240.494,162.03a4.492,4.492,0,0,1-1.022-2.758,4.492,4.492,0,0,1-1.022,2.758,4.8,4.8,0,0,1-2.37,1.129,5.7,5.7,0,0,1,2.391,1.15,7.6,7.6,0,0,1,1,2.738,7.6,7.6,0,0,1,1-2.738,5.7,5.7,0,0,1,2.391-1.15A4.8,4.8,0,0,1-240.494,162.03Z" transform="translate(727.977 -143.749)" fill="#de212b"/>
  <g id="Group_2855" data-name="Group 2855" transform="translate(32.424 10.648)">
    <path id="Path_5314" data-name="Path 5314" d="M-515.751,284.758c3.083,2.934,3.2,8.631,3.2,8.631s.116-5.7,3.2-8.631a15.013,15.013,0,0,1,7.413-3.534s-5.447-1.264-7.482-3.6-3.13-8.565-3.13-8.565-1.094,6.231-3.13,8.565-7.483,3.6-7.483,3.6A15.013,15.013,0,0,1-515.751,284.758Z" transform="translate(523.164 -269.061)" fill="#ffd400"/>
    <path id="Path_5315" data-name="Path 5315" d="M-395.7,390.656c1.7,1.619,1.764,4.759,1.764,4.759s.064-3.14,1.764-4.759a8.282,8.282,0,0,1,4.087-1.948s-3-.7-4.125-1.982S-393.938,382-393.938,382s-.6,3.435-1.726,4.723-4.125,1.982-4.125,1.982A8.282,8.282,0,0,1-395.7,390.656Z" transform="translate(737.627 -178.874)" fill="#91b508"/>
    <path id="Path_5316" data-name="Path 5316" d="M-431.066,347.014c2.076,1.975,2.155,5.81,2.155,5.81s.079-3.835,2.154-5.81a10.117,10.117,0,0,1,4.991-2.379s-3.667-.85-5.038-2.422-2.107-5.767-2.107-5.767-.736,4.2-2.107,5.767-5.039,2.422-5.039,2.422A10.114,10.114,0,0,1-431.066,347.014Z" transform="translate(557.131 -140.822)" fill="#1d8d9c"/>
    <path id="Path_5317" data-name="Path 5317" d="M-447.7,291.512a5.4,5.4,0,0,1,1.232,3.319,5.405,5.405,0,0,1,1.231-3.319,5.772,5.772,0,0,1,2.852-1.359,6.855,6.855,0,0,1-2.879-1.385,9.134,9.134,0,0,1-1.2-3.294,9.135,9.135,0,0,1-1.2,3.294,6.86,6.86,0,0,1-2.879,1.385A5.765,5.765,0,0,1-447.7,291.512Z" transform="translate(592.152 -174.577)" fill="#1d8d9c"/>
    <path id="Path_5318" data-name="Path 5318" d="M-464.816,230.416a5.41,5.41,0,0,1,1.232,3.32,5.409,5.409,0,0,1,1.23-3.32,5.785,5.785,0,0,1,2.852-1.359,6.861,6.861,0,0,1-2.879-1.384,9.153,9.153,0,0,1-1.2-3.295,9.144,9.144,0,0,1-1.2,3.295,6.861,6.861,0,0,1-2.879,1.384A5.778,5.778,0,0,1-464.816,230.416Z" transform="translate(579.868 -203.972)" fill="#ffd400"/>
    <path id="Path_5319" data-name="Path 5319" d="M-507.055,330.266a5.782,5.782,0,0,1,1.316,3.55,5.776,5.776,0,0,1,1.317-3.55,6.17,6.17,0,0,1,3.048-1.453,7.319,7.319,0,0,1-3.078-1.479,9.78,9.78,0,0,1-1.287-3.524,9.778,9.778,0,0,1-1.287,3.524,7.329,7.329,0,0,1-3.078,1.479A6.178,6.178,0,0,1-507.055,330.266Z" transform="translate(573.016 -139.562)" fill="#91b508"/>
    <path id="Path_5320" data-name="Path 5320" d="M-480.694,390.4c1.526,1.452,1.583,4.269,1.583,4.269s.058-2.817,1.584-4.269a7.422,7.422,0,0,1,3.666-1.747s-2.693-.626-3.7-1.781-1.549-4.236-1.549-4.236-.54,3.082-1.548,4.236-3.7,1.781-3.7,1.781A7.417,7.417,0,0,1-480.694,390.4Z" transform="translate(803.636 -227.851)" fill="#de212b"/>
    <path id="Path_5321" data-name="Path 5321" d="M-511.014,366.02a4.488,4.488,0,0,1,1.022,2.757,4.49,4.49,0,0,1,1.023-2.757,4.788,4.788,0,0,1,2.368-1.129,5.7,5.7,0,0,1-2.391-1.151,7.6,7.6,0,0,1-1-2.737,7.568,7.568,0,0,1-1,2.737,5.69,5.69,0,0,1-2.39,1.151A4.789,4.789,0,0,1-511.014,366.02Z" transform="translate(761.995 -176.779)" fill="#de212b"/>
    <path id="Path_5322" data-name="Path 5322" d="M-403.557,275.221a4.489,4.489,0,0,1,1.021,2.758,4.5,4.5,0,0,1,1.023-2.758,4.8,4.8,0,0,1,2.369-1.129,5.7,5.7,0,0,1-2.392-1.15,7.611,7.611,0,0,1-1-2.737,7.579,7.579,0,0,1-1,2.737,5.692,5.692,0,0,1-2.392,1.15A4.8,4.8,0,0,1-403.557,275.221Z" transform="translate(687.886 -172.898)" fill="#de212b"/>
  </g>
</svg>
